<svg width="51" height="51" viewBox="0 0 51 51" fill="none" xmlns="http://www.w3.org/2000/svg">
	<path d="M19.3125 25.2067V10.6661C19.3125 9.00589 19.972 7.41367 21.146 6.23972C22.3199 5.06577 23.9121 4.40625 25.5724 4.40625C27.2326 4.40625 28.8248 5.06577 29.9987 6.23972C31.1727 7.41367 31.8322 9.00589 31.8322 10.6661V12.759M31.8322 25.2756V39.8788C31.8322 41.539 31.1727 43.1312 29.9987 44.3052C28.8248 45.4791 27.2326 46.1386 25.5724 46.1386C23.9121 46.1386 22.3199 45.4791 21.146 44.3052C19.972 43.1312 19.3125 41.539 19.3125 39.8788V37.7609" stroke="#3B5ACC" stroke-width="4.17324" stroke-linecap="round" />
	<path d="M25.5722 31.5314H10.9492C7.50212 31.5314 4.70605 28.7291 4.70605 25.2716C4.70605 21.814 7.50212 19.0117 10.9492 19.0117H13.0411M25.5722 19.0117H40.1671C41.8288 19.0103 43.423 19.669 44.5991 20.843C45.7751 22.0169 46.4368 23.6099 46.4384 25.2716C46.4384 28.7291 43.6309 31.5314 40.1671 31.5314H38.1608" stroke="#3B5ACC" stroke-width="4.17324" stroke-linecap="round" />
</svg>