<svg width="58" height="58" viewBox="0 0 58 58" fill="none" xmlns="http://www.w3.org/2000/svg">
	<path d="M40.3728 11.3612C40.1548 11.0548 39.8667 10.8051 39.5325 10.6328C39.1983 10.4606 38.8277 10.3709 38.4517 10.3711H7.73375C7.29984 10.3715 6.87441 10.4914 6.50411 10.7176C6.13382 10.9437 5.83296 11.2675 5.63453 11.6534C5.43609 12.0393 5.34775 12.4724 5.37917 12.9052C5.4106 13.3379 5.56059 13.7537 5.8127 14.1069L16.6443 29.2744L5.81034 44.442C5.55812 44.7954 5.40811 45.2113 5.37677 45.6443C5.34543 46.0773 5.43399 46.5105 5.63271 46.8965C5.83142 47.2825 6.13263 47.6062 6.50326 47.8323C6.8739 48.0583 7.29964 48.1778 7.73375 48.1778H38.4517C38.8277 48.178 39.1983 48.0883 39.5325 47.916C39.8667 47.7438 40.1548 47.4941 40.3728 47.1877L52.1873 30.6473C52.4743 30.2471 52.6287 29.7669 52.6287 29.2744C52.6287 28.7819 52.4743 28.3018 52.1873 27.9016L40.3728 11.3612ZM37.2348 43.452H12.3249L21.4694 30.6473C21.7564 30.2471 21.9108 29.7669 21.9108 29.2744C21.9108 28.7819 21.7564 28.3018 21.4694 27.9016L12.3249 15.0969H37.2348L47.3623 29.2744L37.2348 43.452Z" fill="#3B5ACC" />
</svg>