<svg width="36" height="36" viewBox="0 0 36 36" fill="none" xmlns="http://www.w3.org/2000/svg">
	<path fill-rule="evenodd" clip-rule="evenodd"
		d="M10.5 31.4995C8.9087 31.4995 7.38258 30.8674 6.25736 29.7422C5.13214 28.6169 4.5 27.0908 4.5 25.4995C4.5 23.29 6.4995 16.2895 10.5 4.49951H13.5L10.5 19.4995C12.0913 19.4995 13.6174 20.1317 14.7426 21.2569C15.8679 22.3821 16.5 23.9082 16.5 25.4995C16.5 27.0908 15.8679 28.6169 14.7426 29.7422C13.6174 30.8674 12.0913 31.4995 10.5 31.4995ZM25.5 31.4995C23.9087 31.4995 22.3826 30.8674 21.2574 29.7422C20.1321 28.6169 19.5 27.0908 19.5 25.4995C19.5 23.29 21.4995 16.2895 25.5 4.49951H28.5L25.5 19.4995C27.0913 19.4995 28.6174 20.1317 29.7426 21.2569C30.8679 22.3821 31.5 23.9082 31.5 25.4995C31.5 27.0908 30.8679 28.6169 29.7426 29.7422C28.6174 30.8674 27.0913 31.4995 25.5 31.4995Z"
		fill="url(#paint0_linear_1_447)" />
	<defs>
		<linearGradient id="paint0_linear_1_447" x1="31.5" y1="17.9993" x2="4.5" y2="17.9993"
			gradientUnits="userSpaceOnUse">
			<stop stop-color="#2E22AC" stop-opacity="0.31" />
			<stop offset="0.40625" stop-color="#D0469D" />
			<stop offset="1" stop-color="#D0469D" />
		</linearGradient>
	</defs>
</svg>