<svg width="36" height="36" viewBox="0 0 36 36" fill="none" xmlns="http://www.w3.org/2000/svg">
	<path fill-rule="evenodd" clip-rule="evenodd" d="M25.5 4.50049C27.0913 4.50049 28.6174 5.13263 29.7426 6.25785C30.8679 7.38307 31.5 8.90919 31.5 10.5005C31.5 12.71 29.5005 19.7105 25.5 31.5005L22.5 31.5005L25.5 16.5005C23.9087 16.5005 22.3826 15.8683 21.2574 14.7431C20.1321 13.6179 19.5 12.0918 19.5 10.5005C19.5 8.90919 20.1321 7.38307 21.2574 6.25785C22.3826 5.13263 23.9087 4.50049 25.5 4.50049ZM10.5 4.50049C12.0913 4.50049 13.6174 5.13263 14.7426 6.25785C15.8679 7.38307 16.5 8.90919 16.5 10.5005C16.5 12.71 14.5005 19.7105 10.5 31.5005L7.5 31.5005L10.5 16.5005C8.9087 16.5005 7.38258 15.8683 6.25736 14.7431C5.13215 13.6179 4.5 12.0918 4.5 10.5005C4.5 8.90919 5.13215 7.38307 6.25736 6.25785C7.38258 5.13263 8.90871 4.50049 10.5 4.50049Z" fill="url(#paint0_linear_1_453)" />
	<defs>
		<linearGradient id="paint0_linear_1_453" x1="4.50002" y1="18.0007" x2="31.5" y2="18.0007" gradientUnits="userSpaceOnUse">
			<stop stop-color="#2E22AC" stop-opacity="0.31" />
			<stop offset="0.40625" stop-color="#D0469D" />
			<stop offset="1" stop-color="#D0469D" />
		</linearGradient>
	</defs>
</svg>