<svg width="53" height="52" viewBox="0 0 53 52" fill="none" xmlns="http://www.w3.org/2000/svg">
	<path d="M15.7566 12.0401C18.6209 9.63459 22.1567 8.16979 25.8831 7.84492V11.5388C25.8831 11.9668 26.0531 12.3772 26.3556 12.6798C26.6582 12.9823 27.0686 13.1523 27.4966 13.1523C27.9245 13.1523 28.3349 12.9823 28.6375 12.6798C28.9401 12.3772 29.1101 11.9668 29.1101 11.5388V7.84492C33.4778 8.23286 37.5608 10.1769 40.6152 13.323C43.6696 16.469 45.4922 20.6076 45.7509 24.9849H42.0183C41.5904 24.9849 41.18 25.1549 40.8774 25.4575C40.5748 25.76 40.4048 26.1705 40.4048 26.5984C40.4048 27.0263 40.5748 27.4367 40.8774 27.7393C41.18 28.0419 41.5904 28.2119 42.0183 28.2119H45.6627C45.1034 33.1859 42.6013 37.3509 38.8472 40.4059C38.5151 40.6763 38.3041 41.0676 38.2605 41.4937C38.2169 41.9197 38.3444 42.3456 38.6148 42.6777C38.8853 43.0098 39.2766 43.2208 39.7026 43.2644C40.1287 43.308 40.5546 43.1805 40.8867 42.9101C45.6756 39.0096 48.7822 33.4569 48.9973 26.8071C49.0117 26.6958 49.0146 26.5833 49.006 26.4715L49.0103 26.0605C49.0103 14.1785 39.3786 4.54688 27.4966 4.54688C15.6146 4.54688 5.98291 14.1785 5.98291 26.0605C5.98291 33.0568 9.25944 38.8698 14.0936 42.8971C14.4235 43.159 14.8428 43.2814 15.2618 43.2382C15.6808 43.195 16.0664 42.9897 16.336 42.6661C16.6057 42.3425 16.7381 41.9263 16.705 41.5064C16.6719 41.0865 16.4759 40.6961 16.1589 40.4188C12.48 37.3509 9.91346 33.1751 9.33474 28.2119H12.9749C13.4028 28.2119 13.8132 28.0419 14.1158 27.7393C14.4184 27.4367 14.5884 27.0263 14.5884 26.5984C14.5884 26.1705 14.4184 25.76 14.1158 25.4575C13.8132 25.1549 13.4028 24.9849 12.9749 24.9849H9.24008C9.47673 20.936 11.0279 17.2399 13.4761 14.3205L16.1374 16.9818C16.4432 17.2668 16.8478 17.422 17.2658 17.4146C17.6838 17.4072 18.0826 17.2379 18.3783 16.9422C18.6739 16.6466 18.8432 16.2478 18.8506 15.8298C18.858 15.4118 18.7028 15.0072 18.4178 14.7013L15.7566 12.0401ZM37.7371 14.5163C37.487 14.3238 37.1789 14.2221 36.8634 14.2279C36.5478 14.2338 36.2437 14.3469 36.0009 14.5486L35.5319 14.9423C33.8404 16.3628 32.1545 17.7899 30.4741 19.2235C29.0628 20.4283 27.6192 21.6761 26.4661 22.6937C25.9668 23.1325 25.4726 23.5771 24.9838 24.0275C24.6647 24.3133 24.363 24.6179 24.0802 24.9397C23.7465 25.3505 23.4988 25.8241 23.3516 26.3324C23.2044 26.8407 23.1609 27.3734 23.2235 27.8989C23.2861 28.4244 23.4536 28.932 23.716 29.3916C23.9785 29.8511 24.3306 30.2532 24.7514 30.5741C25.6085 31.2349 26.6893 31.5358 27.7645 31.4129C28.8398 31.29 29.8248 30.753 30.5106 29.9158C30.7 29.6834 30.9517 29.279 31.2098 28.8466C31.4852 28.384 31.823 27.7924 32.1973 27.1298C32.9438 25.7959 33.8496 24.1351 34.7252 22.5151C35.7651 20.5853 36.797 18.6512 37.821 16.7129L38.1028 16.1772C38.2476 15.9017 38.2904 15.5839 38.2234 15.2799C38.1565 14.976 37.9842 14.7055 37.7371 14.5163Z" fill="#3B5ACC" />
</svg>
	