<svg width="46" height="46" viewBox="0 0 46 46" fill="none" xmlns="http://www.w3.org/2000/svg">
	<path d="M40.0678 4.24609H6.20315C5.70418 4.24609 5.22564 4.44431 4.87282 4.79713C4.51999 5.14996 4.32178 5.62849 4.32178 6.12746V39.9921C4.32178 40.4911 4.51999 40.9696 4.87282 41.3225C5.22564 41.6753 5.70418 41.8735 6.20315 41.8735H40.0678C40.5668 41.8735 41.0453 41.6753 41.3981 41.3225C41.751 40.9696 41.9492 40.4911 41.9492 39.9921V6.12746C41.9492 5.62849 41.751 5.14996 41.3981 4.79713C41.0453 4.44431 40.5668 4.24609 40.0678 4.24609V4.24609Z" stroke="#3B5ACC" stroke-width="3.76274" stroke-linejoin="round" />
	<path d="M4.32178 23.0586H16.5507M29.7203 23.0586H41.9492" stroke="#3B5ACC" stroke-width="3.76274" stroke-linecap="round" stroke-linejoin="round" />
	<path d="M23.1356 29.6422C24.0003 29.6422 24.8566 29.4719 25.6555 29.141C26.4544 28.8101 27.1803 28.3251 27.7917 27.7136C28.4032 27.1022 28.8882 26.3762 29.2191 25.5773C29.5501 24.7784 29.7204 23.9222 29.7204 23.0575C29.7204 22.1927 29.5501 21.3365 29.2191 20.5376C28.8882 19.7387 28.4032 19.0128 27.7917 18.4013C27.1803 17.7898 26.4544 17.3048 25.6555 16.9739C24.8566 16.643 24.0003 16.4727 23.1356 16.4727C21.3892 16.4727 19.7143 17.1664 18.4794 18.4013C17.2445 19.6362 16.5508 21.3111 16.5508 23.0575C16.5508 24.8038 17.2445 26.4787 18.4794 27.7136C19.7143 28.9485 21.3892 29.6422 23.1356 29.6422V29.6422Z" stroke="#3B5ACC" stroke-width="3.76274" stroke-linejoin="round" />
</svg>