<svg width="50" height="50" viewBox="0 0 50 50" fill="none" xmlns="http://www.w3.org/2000/svg">
	<path d="M35.0083 41.6667H45.2533V37.5687C45.2532 36.2912 44.8551 35.0455 44.1143 34.0047C43.3736 32.964 42.3269 32.1798 41.1199 31.7613C39.913 31.3429 38.6056 31.3108 37.3795 31.6697C36.1535 32.0285 35.0697 32.7605 34.2789 33.7637M35.0083 41.6667H14.5184M35.0083 41.6667V37.5687C35.0083 36.2246 34.7501 34.9398 34.2789 33.7637M14.5184 41.6667H4.27344V37.5687C4.27353 36.2912 4.67163 35.0455 5.41239 34.0047C6.15316 32.964 7.19978 32.1798 8.40677 31.7613C9.61376 31.3429 10.9211 31.3108 12.1472 31.6697C13.3732 32.0285 14.457 32.7605 15.2478 33.7637M14.5184 41.6667V37.5687C14.5184 36.2246 14.7766 34.9398 15.2478 33.7637M15.2478 33.7637C16.0087 31.8622 17.3219 30.2322 19.018 29.0841C20.7141 27.9359 22.7152 27.3223 24.7634 27.3223C26.8115 27.3223 28.8127 27.9359 30.5087 29.0841C32.2048 30.2322 33.518 31.8622 34.2789 33.7637M30.9103 15.0298C30.9103 16.6601 30.2627 18.2236 29.1099 19.3764C27.9571 20.5291 26.3936 21.1768 24.7634 21.1768C23.1331 21.1768 21.5696 20.5291 20.4168 19.3764C19.264 18.2236 18.6164 16.6601 18.6164 15.0298C18.6164 13.3995 19.264 11.836 20.4168 10.6832C21.5696 9.53044 23.1331 8.88281 24.7634 8.88281C26.3936 8.88281 27.9571 9.53044 29.1099 10.6832C30.2627 11.836 30.9103 13.3995 30.9103 15.0298V15.0298ZM43.2043 21.1768C43.2043 22.2636 42.7725 23.306 42.004 24.0745C41.2355 24.843 40.1932 25.2747 39.1063 25.2747C38.0194 25.2747 36.9771 24.843 36.2086 24.0745C35.4401 23.306 35.0083 22.2636 35.0083 21.1768C35.0083 20.0899 35.4401 19.0476 36.2086 18.2791C36.9771 17.5105 38.0194 17.0788 39.1063 17.0788C40.1932 17.0788 41.2355 17.5105 42.004 18.2791C42.7725 19.0476 43.2043 20.0899 43.2043 21.1768ZM14.5184 21.1768C14.5184 22.2636 14.0866 23.306 13.3181 24.0745C12.5496 24.843 11.5073 25.2747 10.4204 25.2747C9.33356 25.2747 8.29122 24.843 7.5227 24.0745C6.75418 23.306 6.32243 22.2636 6.32243 21.1768C6.32243 20.0899 6.75418 19.0476 7.5227 18.2791C8.29122 17.5105 9.33356 17.0788 10.4204 17.0788C11.5073 17.0788 12.5496 17.5105 13.3181 18.2791C14.0866 19.0476 14.5184 20.0899 14.5184 21.1768Z" stroke="#3B5ACC" stroke-width="4.09798" stroke-linecap="round" stroke-linejoin="round" />
</svg>