<svg width="51" height="50" viewBox="0 0 51 50" fill="none" xmlns="http://www.w3.org/2000/svg">
	<g clip-path="url(#clip0_3341_6013)">
		<path d="M47.3721 38.1203L49.7084 36.0709L47.659 32.5254L44.6874 33.5296C44.0316 32.9763 43.2938 32.5459 42.474 32.2385L41.8592 29.1644H37.7604L37.1456 32.218C36.3259 32.5254 35.5881 32.9558 34.9323 33.5091L31.9607 32.5049L29.9113 36.0504L32.2476 38.0998C32.0836 39.1245 32.0836 39.6573 32.2476 40.682L29.9113 42.7314L31.9607 46.2769L34.9323 45.2727C35.5881 45.826 36.3259 46.2564 37.1456 46.5638L37.7604 49.6584H41.8592L42.474 46.6048C43.2938 46.2974 44.0316 45.867 44.6874 45.3137L47.659 46.3179L49.7084 42.7724L47.3721 40.723C47.5361 39.6778 47.5361 39.145 47.3721 38.1203ZM39.8098 43.5102C37.5555 43.5102 35.711 41.6657 35.711 39.4114C35.711 37.1571 37.5555 35.3126 39.8098 35.3126C42.0642 35.3126 43.9086 37.1571 43.9086 39.4114C43.9086 41.6657 42.0642 43.5102 39.8098 43.5102ZM23.4147 14.8187V25.9059L28.2513 30.7425L30.3826 27.074L27.5135 24.2254V14.8187H23.4147ZM43.9086 25.0656C43.9086 20.1738 41.9654 15.4824 38.5063 12.0234C35.0473 8.56435 30.3559 6.62109 25.4641 6.62109C19.6643 6.62109 14.4998 9.32629 11.1183 13.5071V8.67049H7.01953V20.9669H19.3159V16.8681H13.7006C15.0224 14.9728 16.7818 13.4243 18.8297 12.354C20.8776 11.2837 23.1534 10.7231 25.4641 10.7199C33.3747 10.7199 39.8098 17.155 39.8098 25.0656H43.9086ZM23.1278 39.227C17.0001 38.2228 12.1635 33.2837 11.2823 27.115H7.14249C8.16719 36.3373 15.9754 43.5102 25.4641 43.5102H25.6075L23.1278 39.227Z" fill="#3B5ACC" />
	</g>
	<defs>
		<clipPath id="clip0_3341_6013">
			<rect width="49.1855" height="49.1855" fill="white" transform="translate(0.871094 0.472656)" />
		</clipPath>
	</defs>
</svg>