<svg width="50" height="50" viewBox="0 0 50 50" fill="none" xmlns="http://www.w3.org/2000/svg">
	<path fill-rule="evenodd" clip-rule="evenodd" d="M40.9704 18.2295C43.1856 18.2295 44.9981 20.042 44.9981 22.2572V26.285C44.9981 28.5002 43.1856 30.3127 40.9704 30.3127V36.3543C40.9704 37.4226 40.546 38.447 39.7907 39.2024C39.0353 39.9577 38.0108 40.3821 36.9426 40.3821H8.74844C7.68022 40.3821 6.65575 39.9577 5.9004 39.2024C5.14505 38.447 4.7207 37.4226 4.7207 36.3543V12.1879C4.7207 11.1197 5.14505 10.0952 5.9004 9.33985C6.65575 8.58451 7.68022 8.16016 8.74844 8.16016H36.9426C38.0108 8.16016 39.0353 8.58451 39.7907 9.33985C40.546 10.0952 40.9704 11.1197 40.9704 12.1879V18.2295ZM36.9426 18.2295V12.1879H8.74844V36.3543H36.9426V30.3127H32.9149C30.6996 30.3127 28.8871 28.0975 28.8871 26.285V22.3217C28.8871 20.042 30.6996 18.2295 32.9149 18.2295H36.9426ZM32.9149 26.285H36.9426V22.2572H32.9149V26.285Z" fill="#3B5ACC" />
</svg>