<svg width="329" height="328" viewBox="0 0 329 328" fill="none" xmlns="http://www.w3.org/2000/svg">
	<g clip-path="url(#clip0_3341_6069)">
		<path d="M1.48156 -0.21875H0.737793V0.525014H1.48156V-0.21875Z" fill="white" />
		<path d="M31.232 -0.21875H30.4883V0.525014H31.232V-0.21875Z" fill="white" />
		<path d="M60.9825 -0.21875H60.2388V0.525014H60.9825V-0.21875Z" fill="white" />
		<path d="M90.733 -0.21875H89.9893V0.525014H90.733V-0.21875Z" fill="white" />
		<path d="M120.484 -0.21875H119.74V0.525014H120.484V-0.21875Z" fill="white" />
		<path d="M150.234 -0.21875H149.491V0.525014H150.234V-0.21875Z" fill="white" />
		<path d="M179.985 -0.21875H179.241V0.525014H179.985V-0.21875Z" fill="white" />
		<path d="M209.735 -0.21875H208.992V0.525014H209.735V-0.21875Z" fill="white" />
		<path d="M239.486 -0.21875H238.742V0.525014H239.486V-0.21875Z" fill="white" />
		<path d="M269.236 -0.21875H268.493V0.525014H269.236V-0.21875Z" fill="white" />
		<path d="M298.987 -0.21875H298.244V0.525014H298.987V-0.21875Z" fill="white" />
		<path d="M328.738 -0.21875H327.994V0.525014H328.738V-0.21875Z" fill="white" />
		<path d="M1.48156 29.5312H0.737793V30.275H1.48156V29.5312Z" fill="white" />
		<path d="M31.232 29.5312H30.4883V30.275H31.232V29.5312Z" fill="white" />
		<path d="M60.9825 29.5312H60.2388V30.275H60.9825V29.5312Z" fill="white" />
		<path d="M90.733 29.5312H89.9893V30.275H90.733V29.5312Z" fill="white" />
		<path d="M120.484 29.5312H119.74V30.275H120.484V29.5312Z" fill="white" />
		<path d="M150.234 29.5312H149.491V30.275H150.234V29.5312Z" fill="white" />
		<path d="M179.985 29.5312H179.241V30.275H179.985V29.5312Z" fill="white" />
		<path d="M209.735 29.5312H208.992V30.275H209.735V29.5312Z" fill="white" />
		<path d="M239.486 29.5312H238.742V30.275H239.486V29.5312Z" fill="white" />
		<path d="M269.236 29.5312H268.493V30.275H269.236V29.5312Z" fill="white" />
		<path d="M298.987 29.5312H298.244V30.275H298.987V29.5312Z" fill="white" />
		<path d="M328.738 29.5312H327.994V30.275H328.738V29.5312Z" fill="white" />
		<path d="M1.48156 59.2812H0.737793V60.025H1.48156V59.2812Z" fill="white" />
		<path d="M31.232 59.2812H30.4883V60.025H31.232V59.2812Z" fill="white" />
		<path d="M60.9825 59.2812H60.2388V60.025H60.9825V59.2812Z" fill="white" />
		<path d="M90.733 59.2812H89.9893V60.025H90.733V59.2812Z" fill="white" />
		<path d="M120.484 59.2812H119.74V60.025H120.484V59.2812Z" fill="white" />
		<path d="M150.234 59.2812H149.491V60.025H150.234V59.2812Z" fill="white" />
		<path d="M179.985 59.2812H179.241V60.025H179.985V59.2812Z" fill="white" />
		<path d="M209.735 59.2812H208.992V60.025H209.735V59.2812Z" fill="white" />
		<path d="M239.486 59.2812H238.742V60.025H239.486V59.2812Z" fill="white" />
		<path d="M269.236 59.2812H268.493V60.025H269.236V59.2812Z" fill="white" />
		<path d="M298.987 59.2812H298.244V60.025H298.987V59.2812Z" fill="white" />
		<path d="M328.738 59.2812H327.994V60.025H328.738V59.2812Z" fill="white" />
		<path d="M1.48156 89.0312H0.737793V89.775H1.48156V89.0312Z" fill="white" />
		<path d="M31.232 89.0312H30.4883V89.775H31.232V89.0312Z" fill="white" />
		<path d="M60.9825 89.0312H60.2388V89.775H60.9825V89.0312Z" fill="white" />
		<path d="M90.733 89.0312H89.9893V89.775H90.733V89.0312Z" fill="white" />
		<path d="M120.484 89.0312H119.74V89.775H120.484V89.0312Z" fill="white" />
		<path d="M150.234 89.0312H149.491V89.775H150.234V89.0312Z" fill="white" />
		<path d="M179.985 89.0312H179.241V89.775H179.985V89.0312Z" fill="white" />
		<path d="M209.735 89.0312H208.992V89.775H209.735V89.0312Z" fill="white" />
		<path d="M239.486 89.0312H238.742V89.775H239.486V89.0312Z" fill="white" />
		<path d="M269.236 89.0312H268.493V89.775H269.236V89.0312Z" fill="white" />
		<path d="M298.987 89.0312H298.244V89.775H298.987V89.0312Z" fill="white" />
		<path d="M328.738 89.0312H327.994V89.775H328.738V89.0312Z" fill="white" />
		<path d="M1.48156 118.781H0.737793V119.525H1.48156V118.781Z" fill="white" />
		<path d="M31.232 118.781H30.4883V119.525H31.232V118.781Z" fill="white" />
		<path d="M60.9825 118.781H60.2388V119.525H60.9825V118.781Z" fill="white" />
		<path d="M90.733 118.781H89.9893V119.525H90.733V118.781Z" fill="white" />
		<path d="M120.484 118.781H119.74V119.525H120.484V118.781Z" fill="white" />
		<path d="M150.234 118.781H149.491V119.525H150.234V118.781Z" fill="white" />
		<path d="M179.985 118.781H179.241V119.525H179.985V118.781Z" fill="white" />
		<path d="M209.735 118.781H208.992V119.525H209.735V118.781Z" fill="white" />
		<path d="M239.486 118.781H238.742V119.525H239.486V118.781Z" fill="white" />
		<path d="M269.236 118.781H268.493V119.525H269.236V118.781Z" fill="white" />
		<path d="M298.987 118.781H298.244V119.525H298.987V118.781Z" fill="white" />
		<path d="M328.738 118.781H327.994V119.525H328.738V118.781Z" fill="white" />
		<path d="M1.48156 148.531H0.737793V149.275H1.48156V148.531Z" fill="white" />
		<path d="M31.232 148.531H30.4883V149.275H31.232V148.531Z" fill="white" />
		<path d="M60.9825 148.531H60.2388V149.275H60.9825V148.531Z" fill="white" />
		<path d="M90.733 148.531H89.9893V149.275H90.733V148.531Z" fill="white" />
		<path d="M120.484 148.531H119.74V149.275H120.484V148.531Z" fill="white" />
		<path d="M150.234 148.531H149.491V149.275H150.234V148.531Z" fill="white" />
		<path d="M179.985 148.531H179.241V149.275H179.985V148.531Z" fill="white" />
		<path d="M209.735 148.531H208.992V149.275H209.735V148.531Z" fill="white" />
		<path d="M239.486 148.531H238.742V149.275H239.486V148.531Z" fill="white" />
		<path d="M269.236 148.531H268.493V149.275H269.236V148.531Z" fill="white" />
		<path d="M298.987 148.531H298.244V149.275H298.987V148.531Z" fill="white" />
		<path d="M328.738 148.531H327.994V149.275H328.738V148.531Z" fill="white" />
		<path d="M1.48156 178.285H0.737793V179.029H1.48156V178.285Z" fill="white" />
		<path d="M31.232 178.285H30.4883V179.029H31.232V178.285Z" fill="white" />
		<path d="M60.9825 178.285H60.2388V179.029H60.9825V178.285Z" fill="white" />
		<path d="M90.733 178.285H89.9893V179.029H90.733V178.285Z" fill="white" />
		<path d="M120.484 178.285H119.74V179.029H120.484V178.285Z" fill="white" />
		<path d="M150.234 178.285H149.491V179.029H150.234V178.285Z" fill="white" />
		<path d="M179.985 178.285H179.241V179.029H179.985V178.285Z" fill="white" />
		<path d="M209.735 178.285H208.992V179.029H209.735V178.285Z" fill="white" />
		<path d="M239.486 178.285H238.742V179.029H239.486V178.285Z" fill="white" />
		<path d="M269.236 178.285H268.493V179.029H269.236V178.285Z" fill="white" />
		<path d="M298.987 178.285H298.244V179.029H298.987V178.285Z" fill="white" />
		<path d="M328.738 178.285H327.994V179.029H328.738V178.285Z" fill="white" />
		<path d="M1.48156 208.035H0.737793V208.779H1.48156V208.035Z" fill="white" />
		<path d="M31.232 208.035H30.4883V208.779H31.232V208.035Z" fill="white" />
		<path d="M60.9825 208.035H60.2388V208.779H60.9825V208.035Z" fill="white" />
		<path d="M90.733 208.035H89.9893V208.779H90.733V208.035Z" fill="white" />
		<path d="M120.484 208.035H119.74V208.779H120.484V208.035Z" fill="white" />
		<path d="M150.234 208.035H149.491V208.779H150.234V208.035Z" fill="white" />
		<path d="M179.985 208.035H179.241V208.779H179.985V208.035Z" fill="white" />
		<path d="M209.735 208.035H208.992V208.779H209.735V208.035Z" fill="white" />
		<path d="M239.486 208.035H238.742V208.779H239.486V208.035Z" fill="white" />
		<path d="M269.236 208.035H268.493V208.779H269.236V208.035Z" fill="white" />
		<path d="M298.987 208.035H298.244V208.779H298.987V208.035Z" fill="white" />
		<path d="M328.738 208.035H327.994V208.779H328.738V208.035Z" fill="white" />
		<path d="M1.48156 237.785H0.737793V238.529H1.48156V237.785Z" fill="white" />
		<path d="M31.232 237.785H30.4883V238.529H31.232V237.785Z" fill="white" />
		<path d="M60.9825 237.785H60.2388V238.529H60.9825V237.785Z" fill="white" />
		<path d="M90.733 237.785H89.9893V238.529H90.733V237.785Z" fill="white" />
		<path d="M120.484 237.785H119.74V238.529H120.484V237.785Z" fill="white" />
		<path d="M150.234 237.785H149.491V238.529H150.234V237.785Z" fill="white" />
		<path d="M179.985 237.785H179.241V238.529H179.985V237.785Z" fill="white" />
		<path d="M209.735 237.785H208.992V238.529H209.735V237.785Z" fill="white" />
		<path d="M239.486 237.785H238.742V238.529H239.486V237.785Z" fill="white" />
		<path d="M269.236 237.785H268.493V238.529H269.236V237.785Z" fill="white" />
		<path d="M298.987 237.785H298.244V238.529H298.987V237.785Z" fill="white" />
		<path d="M328.738 237.785H327.994V238.529H328.738V237.785Z" fill="white" />
		<path d="M1.48156 267.539H0.737793V268.283H1.48156V267.539Z" fill="white" />
		<path d="M31.232 267.539H30.4883V268.283H31.232V267.539Z" fill="white" />
		<path d="M60.9825 267.539H60.2388V268.283H60.9825V267.539Z" fill="white" />
		<path d="M90.733 267.539H89.9893V268.283H90.733V267.539Z" fill="white" />
		<path d="M120.484 267.539H119.74V268.283H120.484V267.539Z" fill="white" />
		<path d="M150.234 267.539H149.491V268.283H150.234V267.539Z" fill="white" />
		<path d="M179.985 267.539H179.241V268.283H179.985V267.539Z" fill="white" />
		<path d="M209.735 267.539H208.992V268.283H209.735V267.539Z" fill="white" />
		<path d="M239.486 267.539H238.742V268.283H239.486V267.539Z" fill="white" />
		<path d="M269.236 267.539H268.493V268.283H269.236V267.539Z" fill="white" />
		<path d="M298.987 267.539H298.244V268.283H298.987V267.539Z" fill="white" />
		<path d="M328.738 267.539H327.994V268.283H328.738V267.539Z" fill="white" />
		<path d="M1.48156 297.285H0.737793V298.029H1.48156V297.285Z" fill="white" />
		<path d="M31.232 297.285H30.4883V298.029H31.232V297.285Z" fill="white" />
		<path d="M60.9825 297.285H60.2388V298.029H60.9825V297.285Z" fill="white" />
		<path d="M90.733 297.285H89.9893V298.029H90.733V297.285Z" fill="white" />
		<path d="M120.484 297.285H119.74V298.029H120.484V297.285Z" fill="white" />
		<path d="M150.234 297.285H149.491V298.029H150.234V297.285Z" fill="white" />
		<path d="M179.985 297.285H179.241V298.029H179.985V297.285Z" fill="white" />
		<path d="M209.735 297.285H208.992V298.029H209.735V297.285Z" fill="white" />
		<path d="M239.486 297.285H238.742V298.029H239.486V297.285Z" fill="white" />
		<path d="M269.236 297.285H268.493V298.029H269.236V297.285Z" fill="white" />
		<path d="M298.987 297.285H298.244V298.029H298.987V297.285Z" fill="white" />
		<path d="M328.738 297.285H327.994V298.029H328.738V297.285Z" fill="white" />
		<path d="M1.48156 327.039H0.737793V327.783H1.48156V327.039Z" fill="white" />
		<path d="M31.232 327.039H30.4883V327.783H31.232V327.039Z" fill="white" />
		<path d="M60.9825 327.039H60.2388V327.783H60.9825V327.039Z" fill="white" />
		<path d="M90.733 327.039H89.9893V327.783H90.733V327.039Z" fill="white" />
		<path d="M120.484 327.039H119.74V327.783H120.484V327.039Z" fill="white" />
		<path d="M150.234 327.039H149.491V327.783H150.234V327.039Z" fill="white" />
		<path d="M179.985 327.039H179.241V327.783H179.985V327.039Z" fill="white" />
		<path d="M209.735 327.039H208.992V327.783H209.735V327.039Z" fill="white" />
		<path d="M239.486 327.039H238.742V327.783H239.486V327.039Z" fill="white" />
		<path d="M269.236 327.039H268.493V327.783H269.236V327.039Z" fill="white" />
		<path d="M298.987 327.039H298.244V327.783H298.987V327.039Z" fill="white" />
		<path d="M328.738 327.039H327.994V327.783H328.738V327.039Z" fill="white" />
	</g>
	<defs>
		<clipPath id="clip0_3341_6069">
			<rect width="328" height="328" fill="white" transform="translate(0.737793 -0.21875)" />
		</clipPath>
	</defs>
</svg>