<svg width="165" height="15" viewBox="0 0 165 15" fill="none" xmlns="http://www.w3.org/2000/svg">
	<path d="M0 0.909425V14.918H1.9145V8.89429H14.8724V14.918H16.7869V0.909425H14.8724V6.95645H1.9145V0.909425H0ZM20.5431 6.04589V9.80485C20.5431 12.6299 22.8312 14.918 25.6562 14.918H27.6641H29.672H30.6293H32.2169H34.6451C37.4701 14.918 39.7815 12.6299 39.7815 9.80485V6.04589C39.7815 3.22083 37.4701 0.909425 34.6451 0.909425H32.1235H30.6293H29.672H28.598H25.6562C22.8312 0.909425 20.5431 3.22083 20.5431 6.04589ZM25.6562 13.0035C23.9052 13.0035 22.4576 11.5559 22.4576 9.80485V6.04589C22.4576 4.29482 23.9052 2.84727 25.6562 2.84727H28.598H29.672H30.6293H32.1235H34.6451C36.4195 2.84727 37.8437 4.29482 37.8437 6.04589V9.80485C37.8437 11.5559 36.4195 13.0035 34.6451 13.0035H32.2169H30.6293H29.672H27.6641H25.6562ZM58.8419 14.918V13.0035H45.4404V0.909425H43.5259V14.918H58.8419ZM81.7787 14.918H84.1135L74.4242 0.909425H72.2529L62.587 14.918H64.9218L73.3502 2.73054L80.4479 13.0035H70.4785L69.2644 14.918H81.7787ZM87.8498 7.70357V9.61807V14.9413H89.7643V9.61807H98.4729H100.761C101.088 9.61807 101.415 9.59472 101.718 9.52468L101.812 9.50133C103.749 9.01103 105.127 7.25996 105.127 5.27542C105.127 2.87062 103.166 0.909425 100.761 0.909425H87.8498V2.84727H100.761C102.115 2.84727 103.189 3.94461 103.189 5.27542C103.189 5.27542 103.189 5.27542 103.189 5.29877C103.189 6.60623 102.092 7.70357 100.761 7.70357H89.7643H87.8498ZM124.188 14.918V13.0035H110.786V0.909425H108.872V14.918H124.188ZM127.933 13.0035V14.918H143.996V13.0035H127.933ZM127.933 6.95645V8.89429H141.755V6.95645H127.933ZM127.933 0.909425V2.84727H143.996V0.909425H127.933ZM147.724 14.918H150.409L155.989 9.2912L161.569 14.918H164.277L157.343 7.9137L164.277 0.909425H161.569L155.989 6.55954L150.409 0.909425H147.724L154.634 7.9137L147.724 14.918Z" fill="white" />
	<path d="M0 0.909425V0.409425H-0.5V0.909425H0ZM0 14.918H-0.5V15.418H0V14.918ZM1.9145 14.918V15.418H2.4145V14.918H1.9145ZM1.9145 8.89429V8.39429H1.4145V8.89429H1.9145ZM14.8724 8.89429H15.3724V8.39429H14.8724V8.89429ZM14.8724 14.918H14.3724V15.418H14.8724V14.918ZM16.7869 14.918V15.418H17.2869V14.918H16.7869ZM16.7869 0.909425H17.2869V0.409425H16.7869V0.909425ZM14.8724 0.909425V0.409425H14.3724V0.909425H14.8724ZM14.8724 6.95645V7.45645H15.3724V6.95645H14.8724ZM1.9145 6.95645H1.4145V7.45645H1.9145V6.95645ZM1.9145 0.909425H2.4145V0.409425H1.9145V0.909425ZM-0.5 0.909425V14.918H0.5V0.909425H-0.5ZM0 15.418H1.9145V14.418H0V15.418ZM2.4145 14.918V8.89429H1.4145V14.918H2.4145ZM1.9145 9.39429H14.8724V8.39429H1.9145V9.39429ZM14.3724 8.89429V14.918H15.3724V8.89429H14.3724ZM14.8724 15.418H16.7869V14.418H14.8724V15.418ZM17.2869 14.918V0.909425H16.2869V14.918H17.2869ZM16.7869 0.409425H14.8724V1.40942H16.7869V0.409425ZM14.3724 0.909425V6.95645H15.3724V0.909425H14.3724ZM14.8724 6.45645H1.9145V7.45645H14.8724V6.45645ZM2.4145 6.95645V0.909425H1.4145V6.95645H2.4145ZM1.9145 0.409425H0V1.40942H1.9145V0.409425ZM20.0431 6.04589V9.80485H21.0431V6.04589H20.0431ZM20.0431 9.80485C20.0431 12.906 22.555 15.418 25.6562 15.418V14.418C23.1073 14.418 21.0431 12.3538 21.0431 9.80485H20.0431ZM25.6562 15.418H27.6641V14.418H25.6562V15.418ZM27.6641 15.418H29.672V14.418H27.6641V15.418ZM29.672 15.418H30.6293V14.418H29.672V15.418ZM30.6293 15.418H32.2169V14.418H30.6293V15.418ZM32.2169 15.418H34.6451V14.418H32.2169V15.418ZM34.6451 15.418C37.7433 15.418 40.2815 12.909 40.2815 9.80485H39.2815C39.2815 12.3508 37.1969 14.418 34.6451 14.418V15.418ZM40.2815 9.80485V6.04589H39.2815V9.80485H40.2815ZM40.2815 6.04589C40.2815 2.94469 37.7463 0.409425 34.6451 0.409425V1.40942C37.194 1.40942 39.2815 3.49698 39.2815 6.04589H40.2815ZM34.6451 0.409425H32.1235V1.40942H34.6451V0.409425ZM32.1235 0.409425H30.6293V1.40942H32.1235V0.409425ZM30.6293 0.409425H29.672V1.40942H30.6293V0.409425ZM29.672 0.409425H28.598V1.40942H29.672V0.409425ZM28.598 0.409425H25.6562V1.40942H28.598V0.409425ZM25.6562 0.409425C22.5521 0.409425 20.0431 2.94766 20.0431 6.04589H21.0431C21.0431 3.49401 23.1103 1.40942 25.6562 1.40942V0.409425ZM25.6562 12.5035C24.1813 12.5035 22.9576 11.2798 22.9576 9.80485H21.9576C21.9576 11.8321 23.629 13.5035 25.6562 13.5035V12.5035ZM22.9576 9.80485V6.04589H21.9576V9.80485H22.9576ZM22.9576 6.04589C22.9576 4.57097 24.1813 3.34727 25.6562 3.34727V2.34727C23.629 2.34727 21.9576 4.01868 21.9576 6.04589H22.9576ZM25.6562 3.34727H28.598V2.34727H25.6562V3.34727ZM28.598 3.34727H29.672V2.34727H28.598V3.34727ZM29.672 3.34727H30.6293V2.34727H29.672V3.34727ZM30.6293 3.34727H32.1235V2.34727H30.6293V3.34727ZM32.1235 3.34727H34.6451V2.34727H32.1235V3.34727ZM34.6451 3.34727C36.141 3.34727 37.3437 4.56859 37.3437 6.04589H38.3437C38.3437 4.02106 36.698 2.34727 34.6451 2.34727V3.34727ZM37.3437 6.04589V9.80485H38.3437V6.04589H37.3437ZM37.3437 9.80485C37.3437 11.2822 36.141 12.5035 34.6451 12.5035V13.5035C36.698 13.5035 38.3437 11.8297 38.3437 9.80485H37.3437ZM34.6451 12.5035H32.2169V13.5035H34.6451V12.5035ZM32.2169 12.5035H30.6293V13.5035H32.2169V12.5035ZM30.6293 12.5035H29.672V13.5035H30.6293V12.5035ZM29.672 12.5035H27.6641V13.5035H29.672V12.5035ZM27.6641 12.5035H25.6562V13.5035H27.6641V12.5035ZM58.8419 14.918V15.418H59.3419V14.918H58.8419ZM58.8419 13.0035H59.3419V12.5035H58.8419V13.0035ZM45.4404 13.0035H44.9404V13.5035H45.4404V13.0035ZM45.4404 0.909425H45.9404V0.409425H45.4404V0.909425ZM43.5259 0.909425V0.409425H43.0259V0.909425H43.5259ZM43.5259 14.918H43.0259V15.418H43.5259V14.918ZM59.3419 14.918V13.0035H58.3419V14.918H59.3419ZM58.8419 12.5035H45.4404V13.5035H58.8419V12.5035ZM45.9404 13.0035V0.909425H44.9404V13.0035H45.9404ZM45.4404 0.409425H43.5259V1.40942H45.4404V0.409425ZM43.0259 0.909425V14.918H44.0259V0.909425H43.0259ZM43.5259 15.418H58.8419V14.418H43.5259V15.418ZM84.1135 14.918V15.418H85.0672L84.5247 14.6335L84.1135 14.918ZM74.4242 0.909425L74.8354 0.624998L74.6863 0.409425H74.4242V0.909425ZM72.2529 0.909425V0.409425H71.9904L71.8414 0.625462L72.2529 0.909425ZM62.587 14.918L62.1755 14.634L61.6345 15.418H62.587V14.918ZM64.9218 14.918V15.418H65.1839L65.333 15.2024L64.9218 14.918ZM73.3502 2.73054L73.7616 2.44632L73.3504 1.85121L72.939 2.44614L73.3502 2.73054ZM80.4479 13.0035V13.5035H81.4011L80.8593 12.7193L80.4479 13.0035ZM70.4785 13.0035V12.5035H70.2035L70.0562 12.7357L70.4785 13.0035ZM69.2644 14.918L68.8421 14.6502L68.3553 15.418H69.2644V14.918ZM81.7787 15.418H84.1135V14.418H81.7787V15.418ZM84.5247 14.6335L74.8354 0.624998L74.013 1.19385L83.7022 15.2024L84.5247 14.6335ZM74.4242 0.409425H72.2529V1.40942H74.4242V0.409425ZM71.8414 0.625462L62.1755 14.634L62.9985 15.2019L72.6644 1.19339L71.8414 0.625462ZM62.587 15.418H64.9218V14.418H62.587V15.418ZM65.333 15.2024L73.7615 3.01494L72.939 2.44614L64.5105 14.6336L65.333 15.2024ZM72.9389 3.01475L80.0365 13.2877L80.8593 12.7193L73.7616 2.44632L72.9389 3.01475ZM80.4479 12.5035H70.4785V13.5035H80.4479V12.5035ZM70.0562 12.7357L68.8421 14.6502L69.6867 15.1857L70.9007 13.2712L70.0562 12.7357ZM69.2644 15.418H81.7787V14.418H69.2644V15.418ZM87.8498 7.70357V7.20357H87.3498V7.70357H87.8498ZM87.8498 14.9413H87.3498V15.4413H87.8498V14.9413ZM89.7643 14.9413V15.4413H90.2643V14.9413H89.7643ZM89.7643 9.61807V9.11807H89.2643V9.61807H89.7643ZM101.718 9.52468L101.831 10.012L101.84 10.0098L101.718 9.52468ZM101.812 9.50133L101.933 9.98641L101.934 9.98606L101.812 9.50133ZM87.8498 0.909425V0.409425H87.3498V0.909425H87.8498ZM87.8498 2.84727H87.3498V3.34727H87.8498V2.84727ZM87.3498 7.70357V9.61807H88.3498V7.70357H87.3498ZM87.3498 9.61807V14.9413H88.3498V9.61807H87.3498ZM87.8498 15.4413H89.7643V14.4413H87.8498V15.4413ZM90.2643 14.9413V9.61807H89.2643V14.9413H90.2643ZM89.7643 10.1181H98.4729V9.11807H89.7643V10.1181ZM98.4729 10.1181H100.761V9.11807H98.4729V10.1181ZM100.761 10.1181C101.109 10.1181 101.477 10.0935 101.831 10.0119L101.606 9.03748C101.353 9.09593 101.067 9.11807 100.761 9.11807V10.1181ZM101.84 10.0098L101.933 9.9864L101.69 9.01626L101.597 9.03961L101.84 10.0098ZM101.934 9.98606C104.091 9.44047 105.627 7.49235 105.627 5.27542H104.627C104.627 7.02758 103.408 8.58159 101.689 9.01661L101.934 9.98606ZM105.627 5.27542C105.627 2.59448 103.442 0.409425 100.761 0.409425V1.40942C102.89 1.40942 104.627 3.14676 104.627 5.27542H105.627ZM100.761 0.409425H87.8498V1.40942H100.761V0.409425ZM87.3498 0.909425V2.84727H88.3498V0.909425H87.3498ZM87.8498 3.34727H100.761V2.34727H87.8498V3.34727ZM100.761 3.34727C101.836 3.34727 102.689 4.21761 102.689 5.27542H103.689C103.689 3.6716 102.394 2.34727 100.761 2.34727V3.34727ZM103.189 5.27542H102.689C102.689 5.27542 102.689 5.27542 102.689 5.27542C102.689 5.27542 102.689 5.27542 102.689 5.27542C102.689 5.27542 102.689 5.27542 102.689 5.27542C102.689 5.27542 102.689 5.27542 102.689 5.27542C102.689 5.27542 102.689 5.27542 102.689 5.27542C102.689 5.27542 102.689 5.27542 102.689 5.27542V5.27542C102.689 5.27542 102.689 5.27542 102.689 5.27542C102.689 5.27542 102.689 5.27542 102.689 5.27543C102.689 5.27543 102.689 5.27543 102.689 5.27543C102.689 5.27543 102.689 5.27543 102.689 5.27543C102.689 5.27543 102.689 5.27543 102.689 5.27543V5.27543V5.27543C102.689 5.27543 102.689 5.27543 102.689 5.27543V5.27543C102.689 5.27543 102.689 5.27543 102.689 5.27543V5.27543C102.689 5.27543 102.689 5.27543 102.689 5.27543C102.689 5.27543 102.689 5.27543 102.689 5.27543C102.689 5.27543 102.689 5.27543 102.689 5.27543C102.689 5.27543 102.689 5.27543 102.689 5.27543C102.689 5.27543 102.689 5.27544 102.689 5.27544C102.689 5.27544 102.689 5.27544 102.689 5.27544C102.689 5.27544 102.689 5.27544 102.689 5.27544C102.689 5.27544 102.689 5.27544 102.689 5.27544C102.689 5.27544 102.689 5.27544 102.689 5.27544C102.689 5.27544 102.689 5.27544 102.689 5.27544C102.689 5.27544 102.689 5.27544 102.689 5.27544C102.689 5.27544 102.689 5.27544 102.689 5.27544C102.689 5.27544 102.689 5.27544 102.689 5.27545C102.689 5.27545 102.689 5.27545 102.689 5.27545C102.689 5.27545 102.689 5.27545 102.689 5.27545C102.689 5.27545 102.689 5.27545 102.689 5.27545C102.689 5.27545 102.689 5.27545 102.689 5.27545C102.689 5.27545 102.689 5.27545 102.689 5.27545C102.689 5.27545 102.689 5.27545 102.689 5.27545C102.689 5.27546 102.689 5.27546 102.689 5.27546C102.689 5.27546 102.689 5.27546 102.689 5.27546C102.689 5.27546 102.689 5.27546 102.689 5.27546C102.689 5.27546 102.689 5.27546 102.689 5.27546C102.689 5.27546 102.689 5.27546 102.689 5.27546C102.689 5.27547 102.689 5.27547 102.689 5.27547C102.689 5.27547 102.689 5.27547 102.689 5.27547C102.689 5.27547 102.689 5.27547 102.689 5.27547C102.689 5.27547 102.689 5.27547 102.689 5.27547C102.689 5.27547 102.689 5.27548 102.689 5.27548C102.689 5.27548 102.689 5.27548 102.689 5.27548C102.689 5.27548 102.689 5.27548 102.689 5.27548C102.689 5.27548 102.689 5.27548 102.689 5.27548C102.689 5.27548 102.689 5.27549 102.689 5.27549C102.689 5.27549 102.689 5.27549 102.689 5.27549C102.689 5.27549 102.689 5.27549 102.689 5.27549C102.689 5.27549 102.689 5.27549 102.689 5.27549C102.689 5.2755 102.689 5.2755 102.689 5.2755C102.689 5.2755 102.689 5.2755 102.689 5.2755C102.689 5.2755 102.689 5.2755 102.689 5.2755C102.689 5.2755 102.689 5.27551 102.689 5.27551C102.689 5.27551 102.689 5.27551 102.689 5.27551C102.689 5.27551 102.689 5.27551 102.689 5.27551C102.689 5.27551 102.689 5.27552 102.689 5.27552C102.689 5.27552 102.689 5.27552 102.689 5.27552C102.689 5.27552 102.689 5.27552 102.689 5.27552C102.689 5.27553 102.689 5.27553 102.689 5.27553C102.689 5.27553 102.689 5.27553 102.689 5.27553C102.689 5.27553 102.689 5.27553 102.689 5.27554C102.689 5.27554 102.689 5.27554 102.689 5.27554C102.689 5.27554 102.689 5.27554 102.689 5.27554C102.689 5.27555 102.689 5.27555 102.689 5.27555C102.689 5.27555 102.689 5.27555 102.689 5.27555C102.689 5.27555 102.689 5.27556 102.689 5.27556C102.689 5.27556 102.689 5.27556 102.689 5.27556C102.689 5.27556 102.689 5.27556 102.689 5.27557C102.689 5.27557 102.689 5.27557 102.689 5.27557C102.689 5.27557 102.689 5.27557 102.689 5.27557C102.689 5.27558 102.689 5.27558 102.689 5.27558C102.689 5.27558 102.689 5.27558 102.689 5.27558C102.689 5.27559 102.689 5.27559 102.689 5.27559C102.689 5.27559 102.689 5.27559 102.689 5.27559C102.689 5.2756 102.689 5.2756 102.689 5.2756C102.689 5.2756 102.689 5.2756 102.689 5.27561C102.689 5.27561 102.689 5.27561 102.689 5.27561C102.689 5.27561 102.689 5.27561 102.689 5.27562C102.689 5.27562 102.689 5.27562 102.689 5.27562C102.689 5.27562 102.689 5.27563 102.689 5.27563C102.689 5.27563 102.689 5.27563 102.689 5.27563C102.689 5.27564 102.689 5.27564 102.689 5.27564C102.689 5.27564 102.689 5.27564 102.689 5.27565C102.689 5.27565 102.689 5.27565 102.689 5.27565C102.689 5.27565 102.689 5.27566 102.689 5.27566C102.689 5.27566 102.689 5.27566 102.689 5.27567C102.689 5.27567 102.689 5.27567 102.689 5.27567C102.689 5.27567 102.689 5.27568 102.689 5.27568C102.689 5.27568 102.689 5.27568 102.689 5.27569C102.689 5.27569 102.689 5.27569 102.689 5.27569C102.689 5.27569 102.689 5.2757 102.689 5.2757C102.689 5.2757 102.689 5.2757 102.689 5.27571C102.689 5.27571 102.689 5.27571 102.689 5.27571C102.689 5.27572 102.689 5.27572 102.689 5.27572C102.689 5.27572 102.689 5.27573 102.689 5.27573C102.689 5.27573 102.689 5.27573 102.689 5.27574C102.689 5.27574 102.689 5.27574 102.689 5.27574C102.689 5.27575 102.689 5.27575 102.689 5.27575C102.689 5.27576 102.689 5.27576 102.689 5.27576C102.689 5.27576 102.689 5.27577 102.689 5.27577C102.689 5.27577 102.689 5.27577 102.689 5.27578C102.689 5.27578 102.689 5.27578 102.689 5.27579C102.689 5.27579 102.689 5.27579 102.689 5.27579C102.689 5.2758 102.689 5.2758 102.689 5.2758C102.689 5.27581 102.689 5.27581 102.689 5.27581C102.689 5.27582 102.689 5.27582 102.689 5.27582C102.689 5.27582 102.689 5.27583 102.689 5.27583C102.689 5.27583 102.689 5.27584 102.689 5.27584C102.689 5.27584 102.689 5.27585 102.689 5.27585C102.689 5.27585 102.689 5.27586 102.689 5.27586C102.689 5.27586 102.689 5.27587 102.689 5.27587C102.689 5.27587 102.689 5.27587 102.689 5.27588C102.689 5.27588 102.689 5.27588 102.689 5.27589C102.689 5.27589 102.689 5.2759 102.689 5.2759C102.689 5.2759 102.689 5.27591 102.689 5.27591C102.689 5.27591 102.689 5.27592 102.689 5.27592C102.689 5.27592 102.689 5.27593 102.689 5.27593C102.689 5.27593 102.689 5.27594 102.689 5.27594C102.689 5.27594 102.689 5.27595 102.689 5.27595C102.689 5.27595 102.689 5.27596 102.689 5.27596C102.689 5.27597 102.689 5.27597 102.689 5.27597C102.689 5.27598 102.689 5.27598 102.689 5.27598C102.689 5.27599 102.689 5.27599 102.689 5.276C102.689 5.276 102.689 5.276 102.689 5.27601C102.689 5.27601 102.689 5.27602 102.689 5.27602C102.689 5.27602 102.689 5.27603 102.689 5.27603C102.689 5.27604 102.689 5.27604 102.689 5.27604C102.689 5.27605 102.689 5.27605 102.689 5.27606C102.689 5.27606 102.689 5.27606 102.689 5.27607C102.689 5.27607 102.689 5.27608 102.689 5.27608C102.689 5.27609 102.689 5.27609 102.689 5.27609C102.689 5.2761 102.689 5.2761 102.689 5.27611C102.689 5.27611 102.689 5.27612 102.689 5.27612C102.689 5.27612 102.689 5.27613 102.689 5.27613C102.689 5.27614 102.689 5.27614 102.689 5.27615C102.689 5.27615 102.689 5.27616 102.689 5.27616C102.689 5.27617 102.689 5.27617 102.689 5.27617C102.689 5.27618 102.689 5.27618 102.689 5.27619C102.689 5.27619 102.689 5.2762 102.689 5.2762C102.689 5.27621 102.689 5.27621 102.689 5.27622C102.689 5.27622 102.689 5.27623 102.689 5.27623C102.689 5.27624 102.689 5.27624 102.689 5.27625C102.689 5.27625 102.689 5.27626 102.689 5.27626C102.689 5.27627 102.689 5.27627 102.689 5.27628C102.689 5.27628 102.689 5.27629 102.689 5.27629C102.689 5.2763 102.689 5.2763 102.689 5.27631C102.689 5.27631 102.689 5.27632 102.689 5.27632C102.689 5.27633 102.689 5.27633 102.689 5.27634C102.689 5.27634 102.689 5.27635 102.689 5.27635C102.689 5.27636 102.689 5.27636 102.689 5.27637C102.689 5.27637 102.689 5.27638 102.689 5.27639C102.689 5.27639 102.689 5.2764 102.689 5.2764C102.689 5.27641 102.689 5.27641 102.689 5.27642C102.689 5.27642 102.689 5.27643 102.689 5.27644C102.689 5.27644 102.689 5.27645 102.689 5.27645C102.689 5.27646 102.689 5.27646 102.689 5.27647C102.689 5.27648 102.689 5.27648 102.689 5.27649C102.689 5.27649 102.689 5.2765 102.689 5.2765C102.689 5.27651 102.689 5.27652 102.689 5.27652C102.689 5.27653 102.689 5.27653 102.689 5.27654C102.689 5.27655 102.689 5.27655 102.689 5.27656C102.689 5.27656 102.689 5.27657 102.689 5.27658C102.689 5.27658 102.689 5.27659 102.689 5.2766C102.689 5.2766 102.689 5.27661 102.689 5.27661C102.689 5.27662 102.689 5.27663 102.689 5.27663C102.689 5.27664 102.689 5.27665 102.689 5.27665C102.689 5.27666 102.689 5.27667 102.689 5.27667C102.689 5.27668 102.689 5.27668 102.689 5.27669C102.689 5.2767 102.689 5.2767 102.689 5.27671C102.689 5.27672 102.689 5.27672 102.689 5.27673C102.689 5.27674 102.689 5.27674 102.689 5.27675C102.689 5.27676 102.689 5.27676 102.689 5.27677C102.689 5.27678 102.689 5.27678 102.689 5.27679C102.689 5.2768 102.689 5.27681 102.689 5.27681C102.689 5.27682 102.689 5.27683 102.689 5.27683C102.689 5.27684 102.689 5.27685 102.689 5.27685C102.689 5.27686 102.689 5.27687 102.689 5.27688C102.689 5.27688 102.689 5.27689 102.689 5.2769C102.689 5.27691 102.689 5.27691 102.689 5.27692C102.689 5.27693 102.689 5.27693 102.689 5.27694C102.689 5.27695 102.689 5.27696 102.689 5.27696C102.689 5.27697 102.689 5.27698 102.689 5.27699C102.689 5.27699 102.689 5.277 102.689 5.27701C102.689 5.27702 102.689 5.27702 102.689 5.27703C102.689 5.27704 102.689 5.27705 102.689 5.27706C102.689 5.27706 102.689 5.27707 102.689 5.27708C102.689 5.27709 102.689 5.27709 102.689 5.2771C102.689 5.27711 102.689 5.27712 102.689 5.27713C102.689 5.27713 102.689 5.27714 102.689 5.27715C102.689 5.27716 102.689 5.27717 102.689 5.27717C102.689 5.27718 102.689 5.27719 102.689 5.2772C102.689 5.27721 102.689 5.27722 102.689 5.27722C102.689 5.27723 102.689 5.27724 102.689 5.27725C102.689 5.27726 102.689 5.27726 102.689 5.27727C102.689 5.27728 102.689 5.27729 102.689 5.2773C102.689 5.27731 102.689 5.27732 102.689 5.27732C102.689 5.27733 102.689 5.27734 102.689 5.27735C102.689 5.27736 102.689 5.27737 102.689 5.27738C102.689 5.27738 102.689 5.27739 102.689 5.2774C102.689 5.27741 102.689 5.27742 102.689 5.27743C102.689 5.27744 102.689 5.27745 102.689 5.27746C102.689 5.27746 102.689 5.27747 102.689 5.27748C102.689 5.27749 102.689 5.2775 102.689 5.27751C102.689 5.27752 102.689 5.27753 102.689 5.27754C102.689 5.27755 102.689 5.27756 102.689 5.27757C102.689 5.27757 102.689 5.27758 102.689 5.27759C102.689 5.2776 102.689 5.27761 102.689 5.27762C102.689 5.27763 102.689 5.27764 102.689 5.27765C102.689 5.27766 102.689 5.27767 102.689 5.27768C102.689 5.27769 102.689 5.2777 102.689 5.27771C102.689 5.27772 102.689 5.27773 102.689 5.27774C102.689 5.27775 102.689 5.27776 102.689 5.27777C102.689 5.27778 102.689 5.27779 102.689 5.2778C102.689 5.27781 102.689 5.27782 102.689 5.27783C102.689 5.27784 102.689 5.27785 102.689 5.27786C102.689 5.27787 102.689 5.27788 102.689 5.27789C102.689 5.2779 102.689 5.27791 102.689 5.27792C102.689 5.27793 102.689 5.27794 102.689 5.27795C102.689 5.27796 102.689 5.27797 102.689 5.27798C102.689 5.27799 102.689 5.278 102.689 5.27801C102.689 5.27802 102.689 5.27803 102.689 5.27804C102.689 5.27805 102.689 5.27806 102.689 5.27807C102.689 5.27808 102.689 5.2781 102.689 5.27811C102.689 5.27812 102.689 5.27813 102.689 5.27814C102.689 5.27815 102.689 5.27816 102.689 5.27817C102.689 5.27818 102.689 5.27819 102.689 5.2782C102.689 5.27822 102.689 5.27823 102.689 5.27824C102.689 5.27825 102.689 5.27826 102.689 5.27827C102.689 5.27828 102.689 5.27829 102.689 5.27831C102.689 5.27832 102.689 5.27833 102.689 5.27834C102.689 5.27835 102.689 5.27836 102.689 5.27837C102.689 5.27839 102.689 5.2784 102.689 5.27841C102.689 5.27842 102.689 5.27843 102.689 5.27844C102.689 5.27845 102.689 5.27847 102.689 5.27848C102.689 5.27849 102.689 5.2785 102.689 5.27851C102.689 5.27853 102.689 5.27854 102.689 5.27855C102.689 5.27856 102.689 5.27857 102.689 5.27859C102.689 5.2786 102.689 5.27861 102.689 5.27862C102.689 5.27863 102.689 5.27865 102.689 5.27866C102.689 5.27867 102.689 5.27868 102.689 5.2787C102.689 5.27871 102.689 5.27872 102.689 5.27873C102.689 5.27874 102.689 5.27876 102.689 5.27877C102.689 5.27878 102.689 5.27879 102.689 5.27881C102.689 5.27882 102.689 5.27883 102.689 5.27884C102.689 5.27886 102.689 5.27887 102.689 5.27888C102.689 5.2789 102.689 5.27891 102.689 5.27892C102.689 5.27893 102.689 5.27895 102.689 5.27896C102.689 5.27897 102.689 5.27899 102.689 5.279C102.689 5.27901 102.689 5.27903 102.689 5.27904C102.689 5.27905 102.689 5.27907 102.689 5.27908C102.689 5.27909 102.689 5.2791 102.689 5.27912C102.689 5.27913 102.689 5.27914 102.689 5.27916C102.689 5.27917 102.689 5.27919 102.689 5.2792C102.689 5.27921 102.689 5.27923 102.689 5.27924C102.689 5.27925 102.689 5.27927 102.689 5.27928C102.689 5.27929 102.689 5.27931 102.689 5.27932C102.689 5.27934 102.689 5.27935 102.689 5.27936C102.689 5.27938 102.689 5.27939 102.689 5.27941C102.689 5.27942 102.689 5.27943 102.689 5.27945C102.689 5.27946 102.689 5.27948 102.689 5.27949C102.689 5.2795 102.689 5.27952 102.689 5.27953C102.689 5.27955 102.689 5.27956 102.689 5.27958C102.689 5.27959 102.689 5.27961 102.689 5.27962C102.689 5.27963 102.689 5.27965 102.689 5.27966C102.689 5.27968 102.689 5.27969 102.689 5.27971C102.689 5.27972 102.689 5.27974 102.689 5.27975C102.689 5.27977 102.689 5.27978 102.689 5.2798C102.689 5.27981 102.689 5.27983 102.689 5.27984C102.689 5.27986 102.689 5.27987 102.689 5.27989C102.689 5.2799 102.689 5.27992 102.689 5.27993C102.689 5.27995 102.689 5.27996 102.689 5.27998C102.689 5.27999 102.689 5.28001 102.689 5.28002C102.689 5.28004 102.689 5.28006 102.689 5.28007C102.689 5.28009 102.689 5.2801 102.689 5.28012C102.689 5.28013 102.689 5.28015 102.689 5.28016C102.689 5.28018 102.689 5.2802 102.689 5.28021C102.689 5.28023 102.689 5.28024 102.689 5.28026C102.689 5.28028 102.689 5.28029 102.689 5.28031C102.689 5.28032 102.689 5.28034 102.689 5.28036C102.689 5.28037 102.689 5.28039 102.689 5.28041C102.689 5.28042 102.689 5.28044 102.689 5.28045C102.689 5.28047 102.689 5.28049 102.689 5.2805C102.689 5.28052 102.689 5.28054 102.689 5.28055C102.689 5.28057 102.689 5.28059 102.689 5.2806C102.689 5.28062 102.689 5.28064 102.689 5.28065C102.689 5.28067 102.689 5.28069 102.689 5.2807C102.689 5.28072 102.689 5.28074 102.689 5.28076C102.689 5.28077 102.689 5.28079 102.689 5.28081C102.689 5.28082 102.689 5.28084 102.689 5.28086C102.689 5.28088 102.689 5.28089 102.689 5.28091C102.689 5.28093 102.689 5.28094 102.689 5.28096C102.689 5.28098 102.689 5.281 102.689 5.28101C102.689 5.28103 102.689 5.28105 102.689 5.28107C102.689 5.28109 102.689 5.2811 102.689 5.28112C102.689 5.28114 102.689 5.28116 102.689 5.28117C102.689 5.28119 102.689 5.28121 102.689 5.28123C102.689 5.28125 102.689 5.28126 102.689 5.28128C102.689 5.2813 102.689 5.28132 102.689 5.28134C102.689 5.28136 102.689 5.28137 102.689 5.28139C102.689 5.28141 102.689 5.28143 102.689 5.28145C102.689 5.28147 102.689 5.28148 102.689 5.2815C102.689 5.28152 102.689 5.28154 102.689 5.28156C102.689 5.28158 102.689 5.2816 102.689 5.28162C102.689 5.28163 102.689 5.28165 102.689 5.28167C102.689 5.28169 102.689 5.28171 102.689 5.28173C102.689 5.28175 102.689 5.28177 102.689 5.28179C102.689 5.28181 102.689 5.28183 102.689 5.28184C102.689 5.28186 102.689 5.28188 102.689 5.2819C102.689 5.28192 102.689 5.28194 102.689 5.28196C102.689 5.28198 102.689 5.282 102.689 5.28202C102.689 5.28204 102.689 5.28206 102.689 5.28208C102.689 5.2821 102.689 5.28212 102.689 5.28214C102.689 5.28216 102.689 5.28218 102.689 5.2822C102.689 5.28222 102.689 5.28224 102.689 5.28226C102.689 5.28228 102.689 5.2823 102.689 5.28232C102.689 5.28234 102.689 5.28236 102.689 5.28238C102.689 5.2824 102.689 5.28242 102.689 5.28244C102.689 5.28246 102.689 5.28248 102.689 5.2825C102.689 5.28252 102.689 5.28254 102.689 5.28256C102.689 5.28258 102.689 5.28261 102.689 5.28263C102.689 5.28265 102.689 5.28267 102.689 5.28269C102.689 5.28271 102.689 5.28273 102.689 5.28275C102.689 5.28277 102.689 5.28279 102.689 5.28282C102.689 5.28284 102.689 5.28286 102.689 5.28288C102.689 5.2829 102.689 5.28292 102.689 5.28294C102.689 5.28296 102.689 5.28299 102.689 5.28301C102.689 5.28303 102.689 5.28305 102.689 5.28307C102.689 5.28309 102.689 5.28312 102.689 5.28314C102.689 5.28316 102.689 5.28318 102.689 5.2832C102.689 5.28323 102.689 5.28325 102.689 5.28327C102.689 5.28329 102.689 5.28331 102.689 5.28334C102.689 5.28336 102.689 5.28338 102.689 5.2834C102.689 5.28342 102.689 5.28345 102.689 5.28347C102.689 5.28349 102.689 5.28351 102.689 5.28354C102.689 5.28356 102.689 5.28358 102.689 5.2836C102.689 5.28363 102.689 5.28365 102.689 5.28367C102.689 5.2837 102.689 5.28372 102.689 5.28374C102.689 5.28376 102.689 5.28379 102.689 5.28381C102.689 5.28383 102.689 5.28386 102.689 5.28388C102.689 5.2839 102.689 5.28393 102.689 5.28395C102.689 5.28397 102.689 5.284 102.689 5.28402C102.689 5.28404 102.689 5.28407 102.689 5.28409C102.689 5.28411 102.689 5.28414 102.689 5.28416C102.689 5.28418 102.689 5.28421 102.689 5.28423C102.689 5.28426 102.689 5.28428 102.689 5.2843C102.689 5.28433 102.689 5.28435 102.689 5.28438C102.689 5.2844 102.689 5.28442 102.689 5.28445C102.689 5.28447 102.689 5.2845 102.689 5.28452C102.689 5.28455 102.689 5.28457 102.689 5.28459C102.689 5.28462 102.689 5.28464 102.689 5.28467C102.689 5.28469 102.689 5.28472 102.689 5.28474C102.689 5.28477 102.689 5.28479 102.689 5.28482C102.689 5.28484 102.689 5.28487 102.689 5.28489C102.689 5.28492 102.689 5.28494 102.689 5.28497C102.689 5.28499 102.689 5.28502 102.689 5.28504C102.689 5.28507 102.689 5.28509 102.689 5.28512C102.689 5.28514 102.689 5.28517 102.689 5.28519C102.689 5.28522 102.689 5.28524 102.689 5.28527C102.689 5.2853 102.689 5.28532 102.689 5.28535C102.689 5.28537 102.689 5.2854 102.689 5.28543C102.689 5.28545 102.689 5.28548 102.689 5.2855C102.689 5.28553 102.689 5.28556 102.689 5.28558C102.689 5.28561 102.689 5.28563 102.689 5.28566C102.689 5.28569 102.689 5.28571 102.689 5.28574C102.689 5.28577 102.689 5.28579 102.689 5.28582C102.689 5.28585 102.689 5.28587 102.689 5.2859C102.689 5.28593 102.689 5.28595 102.689 5.28598C102.689 5.28601 102.689 5.28603 102.689 5.28606C102.689 5.28609 102.689 5.28611 102.689 5.28614C102.689 5.28617 102.689 5.2862 102.689 5.28622C102.689 5.28625 102.689 5.28628 102.689 5.28631C102.689 5.28633 102.689 5.28636 102.689 5.28639C102.689 5.28642 102.689 5.28644 102.689 5.28647C102.689 5.2865 102.689 5.28653 102.689 5.28655C102.689 5.28658 102.689 5.28661 102.689 5.28664C102.689 5.28667 102.689 5.28669 102.689 5.28672C102.689 5.28675 102.689 5.28678 102.689 5.28681C102.689 5.28683 102.689 5.28686 102.689 5.28689C102.689 5.28692 102.689 5.28695 102.689 5.28698C102.689 5.287 102.689 5.28703 102.689 5.28706C102.689 5.28709 102.689 5.28712 102.689 5.28715C102.689 5.28718 102.689 5.28721 102.689 5.28724C102.689 5.28726 102.689 5.28729 102.689 5.28732C102.689 5.28735 102.689 5.28738 102.689 5.28741C102.689 5.28744 102.689 5.28747 102.689 5.2875C102.689 5.28753 102.689 5.28756 102.689 5.28759C102.689 5.28762 102.689 5.28765 102.689 5.28767C102.689 5.2877 102.689 5.28773 102.689 5.28776C102.689 5.28779 102.689 5.28782 102.689 5.28785C102.689 5.28788 102.689 5.28791 102.689 5.28794C102.689 5.28797 102.689 5.288 102.689 5.28803C102.689 5.28806 102.689 5.28809 102.689 5.28813C102.689 5.28816 102.689 5.28819 102.689 5.28822C102.689 5.28825 102.689 5.28828 102.689 5.28831C102.689 5.28834 102.689 5.28837 102.689 5.2884C102.689 5.28843 102.689 5.28846 102.689 5.28849C102.689 5.28852 102.689 5.28856 102.689 5.28859C102.689 5.28862 102.689 5.28865 102.689 5.28868C102.689 5.28871 102.689 5.28874 102.689 5.28877C102.689 5.28881 102.689 5.28884 102.689 5.28887C102.689 5.2889 102.689 5.28893 102.689 5.28896C102.689 5.289 102.689 5.28903 102.689 5.28906C102.689 5.28909 102.689 5.28912 102.689 5.28916C102.689 5.28919 102.689 5.28922 102.689 5.28925C102.689 5.28928 102.689 5.28932 102.689 5.28935C102.689 5.28938 102.689 5.28941 102.689 5.28944C102.689 5.28948 102.689 5.28951 102.689 5.28954C102.689 5.28958 102.689 5.28961 102.689 5.28964C102.689 5.28967 102.689 5.28971 102.689 5.28974C102.689 5.28977 102.689 5.28981 102.689 5.28984C102.689 5.28987 102.689 5.2899 102.689 5.28994C102.689 5.28997 102.689 5.29 102.689 5.29004C102.689 5.29007 102.689 5.2901 102.689 5.29014C102.689 5.29017 102.689 5.29021 102.689 5.29024C102.689 5.29027 102.689 5.29031 102.689 5.29034C102.689 5.29037 102.689 5.29041 102.689 5.29044C102.689 5.29048 102.689 5.29051 102.689 5.29054C102.689 5.29058 102.689 5.29061 102.689 5.29065C102.689 5.29068 102.689 5.29072 102.689 5.29075C102.689 5.29078 102.689 5.29082 102.689 5.29085C102.689 5.29089 102.689 5.29092 102.689 5.29096C102.689 5.29099 102.689 5.29103 102.689 5.29106C102.689 5.2911 102.689 5.29113 102.689 5.29117C102.689 5.2912 102.689 5.29124 102.689 5.29127C102.689 5.29131 102.689 5.29134 102.689 5.29138C102.689 5.29141 102.689 5.29145 102.689 5.29148C102.689 5.29152 102.689 5.29156 102.689 5.29159C102.689 5.29163 102.689 5.29166 102.689 5.2917C102.689 5.29173 102.689 5.29177 102.689 5.29181C102.689 5.29184 102.689 5.29188 102.689 5.29191C102.689 5.29195 102.689 5.29199 102.689 5.29202C102.689 5.29206 102.689 5.2921 102.689 5.29213C102.689 5.29217 102.689 5.29221 102.689 5.29224C102.689 5.29228 102.689 5.29232 102.689 5.29235C102.689 5.29239 102.689 5.29243 102.689 5.29246C102.689 5.2925 102.689 5.29254 102.689 5.29257C102.689 5.29261 102.689 5.29265 102.689 5.29269C102.689 5.29272 102.689 5.29276 102.689 5.2928C102.689 5.29284 102.689 5.29287 102.689 5.29291C102.689 5.29295 102.689 5.29299 102.689 5.29302C102.689 5.29306 102.689 5.2931 102.689 5.29314C102.689 5.29318 102.689 5.29321 102.689 5.29325C102.689 5.29329 102.689 5.29333 102.689 5.29337C102.689 5.2934 102.689 5.29344 102.689 5.29348C102.689 5.29352 102.689 5.29356 102.689 5.2936C102.689 5.29364 102.689 5.29367 102.689 5.29371C102.689 5.29375 102.689 5.29379 102.689 5.29383C102.689 5.29387 102.689 5.29391 102.689 5.29395C102.689 5.29399 102.689 5.29402 102.689 5.29406C102.689 5.2941 102.689 5.29414 102.689 5.29418C102.689 5.29422 102.689 5.29426 102.689 5.2943C102.689 5.29434 102.689 5.29438 102.689 5.29442C102.689 5.29446 102.689 5.2945 102.689 5.29454C102.689 5.29458 102.689 5.29462 102.689 5.29466C102.689 5.2947 102.689 5.29474 102.689 5.29478C102.689 5.29482 102.689 5.29486 102.689 5.2949C102.689 5.29494 102.689 5.29498 102.689 5.29502C102.689 5.29506 102.689 5.2951 102.689 5.29514C102.689 5.29518 102.689 5.29523 102.689 5.29527C102.689 5.29531 102.689 5.29535 102.689 5.29539C102.689 5.29543 102.689 5.29547 102.689 5.29551C102.689 5.29555 102.689 5.2956 102.689 5.29564C102.689 5.29568 102.689 5.29572 102.689 5.29576C102.689 5.2958 102.689 5.29584 102.689 5.29589C102.689 5.29593 102.689 5.29597 102.689 5.29601C102.689 5.29605 102.689 5.2961 102.689 5.29614C102.689 5.29618 102.689 5.29622 102.689 5.29626C102.689 5.29631 102.689 5.29635 102.689 5.29639C102.689 5.29643 102.689 5.29648 102.689 5.29652C102.689 5.29656 102.689 5.2966 102.689 5.29665C102.689 5.29669 102.689 5.29673 102.689 5.29678C102.689 5.29682 102.689 5.29686 102.689 5.29691C102.689 5.29695 102.689 5.29699 102.689 5.29703C102.689 5.29708 102.689 5.29712 102.689 5.29716C102.689 5.29721 102.689 5.29725 102.689 5.2973C102.689 5.29734 102.689 5.29738 102.689 5.29743C102.689 5.29747 102.689 5.29751 102.689 5.29756C102.689 5.2976 102.689 5.29765 102.689 5.29769C102.689 5.29774 102.689 5.29778 102.689 5.29782C102.689 5.29787 102.689 5.29791 102.689 5.29796C102.689 5.298 102.689 5.29805 102.689 5.29809C102.689 5.29814 102.689 5.29818 102.689 5.29823C102.689 5.29827 102.689 5.29832 102.689 5.29836C102.689 5.29841 102.689 5.29845 102.689 5.2985C102.689 5.29854 102.689 5.29859 102.689 5.29863C102.689 5.29868 102.689 5.29872 102.689 5.29877H103.689C103.689 5.29872 103.689 5.29868 103.689 5.29863C103.689 5.29859 103.689 5.29854 103.689 5.2985C103.689 5.29845 103.689 5.29841 103.689 5.29836C103.689 5.29832 103.689 5.29827 103.689 5.29823C103.689 5.29818 103.689 5.29814 103.689 5.29809C103.689 5.29805 103.689 5.298 103.689 5.29796C103.689 5.29791 103.689 5.29787 103.689 5.29782C103.689 5.29778 103.689 5.29774 103.689 5.29769C103.689 5.29765 103.689 5.2976 103.689 5.29756C103.689 5.29751 103.689 5.29747 103.689 5.29743C103.689 5.29738 103.689 5.29734 103.689 5.2973C103.689 5.29725 103.689 5.29721 103.689 5.29716C103.689 5.29712 103.689 5.29708 103.689 5.29703C103.689 5.29699 103.689 5.29695 103.689 5.29691C103.689 5.29686 103.689 5.29682 103.689 5.29678C103.689 5.29673 103.689 5.29669 103.689 5.29665C103.689 5.2966 103.689 5.29656 103.689 5.29652C103.689 5.29648 103.689 5.29643 103.689 5.29639C103.689 5.29635 103.689 5.29631 103.689 5.29626C103.689 5.29622 103.689 5.29618 103.689 5.29614C103.689 5.2961 103.689 5.29605 103.689 5.29601C103.689 5.29597 103.689 5.29593 103.689 5.29589C103.689 5.29584 103.689 5.2958 103.689 5.29576C103.689 5.29572 103.689 5.29568 103.689 5.29564C103.689 5.2956 103.689 5.29555 103.689 5.29551C103.689 5.29547 103.689 5.29543 103.689 5.29539C103.689 5.29535 103.689 5.29531 103.689 5.29527C103.689 5.29523 103.689 5.29518 103.689 5.29514C103.689 5.2951 103.689 5.29506 103.689 5.29502C103.689 5.29498 103.689 5.29494 103.689 5.2949C103.689 5.29486 103.689 5.29482 103.689 5.29478C103.689 5.29474 103.689 5.2947 103.689 5.29466C103.689 5.29462 103.689 5.29458 103.689 5.29454C103.689 5.2945 103.689 5.29446 103.689 5.29442C103.689 5.29438 103.689 5.29434 103.689 5.2943C103.689 5.29426 103.689 5.29422 103.689 5.29418C103.689 5.29414 103.689 5.2941 103.689 5.29406C103.689 5.29402 103.689 5.29399 103.689 5.29395C103.689 5.29391 103.689 5.29387 103.689 5.29383C103.689 5.29379 103.689 5.29375 103.689 5.29371C103.689 5.29367 103.689 5.29364 103.689 5.2936C103.689 5.29356 103.689 5.29352 103.689 5.29348C103.689 5.29344 103.689 5.2934 103.689 5.29337C103.689 5.29333 103.689 5.29329 103.689 5.29325C103.689 5.29321 103.689 5.29318 103.689 5.29314C103.689 5.2931 103.689 5.29306 103.689 5.29302C103.689 5.29299 103.689 5.29295 103.689 5.29291C103.689 5.29287 103.689 5.29284 103.689 5.2928C103.689 5.29276 103.689 5.29272 103.689 5.29269C103.689 5.29265 103.689 5.29261 103.689 5.29257C103.689 5.29254 103.689 5.2925 103.689 5.29246C103.689 5.29243 103.689 5.29239 103.689 5.29235C103.689 5.29232 103.689 5.29228 103.689 5.29224C103.689 5.29221 103.689 5.29217 103.689 5.29213C103.689 5.2921 103.689 5.29206 103.689 5.29202C103.689 5.29199 103.689 5.29195 103.689 5.29191C103.689 5.29188 103.689 5.29184 103.689 5.29181C103.689 5.29177 103.689 5.29173 103.689 5.2917C103.689 5.29166 103.689 5.29163 103.689 5.29159C103.689 5.29156 103.689 5.29152 103.689 5.29148C103.689 5.29145 103.689 5.29141 103.689 5.29138C103.689 5.29134 103.689 5.29131 103.689 5.29127C103.689 5.29124 103.689 5.2912 103.689 5.29117C103.689 5.29113 103.689 5.2911 103.689 5.29106C103.689 5.29103 103.689 5.29099 103.689 5.29096C103.689 5.29092 103.689 5.29089 103.689 5.29085C103.689 5.29082 103.689 5.29078 103.689 5.29075C103.689 5.29072 103.689 5.29068 103.689 5.29065C103.689 5.29061 103.689 5.29058 103.689 5.29054C103.689 5.29051 103.689 5.29048 103.689 5.29044C103.689 5.29041 103.689 5.29037 103.689 5.29034C103.689 5.29031 103.689 5.29027 103.689 5.29024C103.689 5.29021 103.689 5.29017 103.689 5.29014C103.689 5.2901 103.689 5.29007 103.689 5.29004C103.689 5.29 103.689 5.28997 103.689 5.28994C103.689 5.2899 103.689 5.28987 103.689 5.28984C103.689 5.28981 103.689 5.28977 103.689 5.28974C103.689 5.28971 103.689 5.28967 103.689 5.28964C103.689 5.28961 103.689 5.28958 103.689 5.28954C103.689 5.28951 103.689 5.28948 103.689 5.28944C103.689 5.28941 103.689 5.28938 103.689 5.28935C103.689 5.28932 103.689 5.28928 103.689 5.28925C103.689 5.28922 103.689 5.28919 103.689 5.28916C103.689 5.28912 103.689 5.28909 103.689 5.28906C103.689 5.28903 103.689 5.289 103.689 5.28896C103.689 5.28893 103.689 5.2889 103.689 5.28887C103.689 5.28884 103.689 5.28881 103.689 5.28877C103.689 5.28874 103.689 5.28871 103.689 5.28868C103.689 5.28865 103.689 5.28862 103.689 5.28859C103.689 5.28856 103.689 5.28852 103.689 5.28849C103.689 5.28846 103.689 5.28843 103.689 5.2884C103.689 5.28837 103.689 5.28834 103.689 5.28831C103.689 5.28828 103.689 5.28825 103.689 5.28822C103.689 5.28819 103.689 5.28816 103.689 5.28813C103.689 5.28809 103.689 5.28806 103.689 5.28803C103.689 5.288 103.689 5.28797 103.689 5.28794C103.689 5.28791 103.689 5.28788 103.689 5.28785C103.689 5.28782 103.689 5.28779 103.689 5.28776C103.689 5.28773 103.689 5.2877 103.689 5.28767C103.689 5.28765 103.689 5.28762 103.689 5.28759C103.689 5.28756 103.689 5.28753 103.689 5.2875C103.689 5.28747 103.689 5.28744 103.689 5.28741C103.689 5.28738 103.689 5.28735 103.689 5.28732C103.689 5.28729 103.689 5.28726 103.689 5.28724C103.689 5.28721 103.689 5.28718 103.689 5.28715C103.689 5.28712 103.689 5.28709 103.689 5.28706C103.689 5.28703 103.689 5.287 103.689 5.28698C103.689 5.28695 103.689 5.28692 103.689 5.28689C103.689 5.28686 103.689 5.28683 103.689 5.28681C103.689 5.28678 103.689 5.28675 103.689 5.28672C103.689 5.28669 103.689 5.28667 103.689 5.28664C103.689 5.28661 103.689 5.28658 103.689 5.28655C103.689 5.28653 103.689 5.2865 103.689 5.28647C103.689 5.28644 103.689 5.28642 103.689 5.28639C103.689 5.28636 103.689 5.28633 103.689 5.28631C103.689 5.28628 103.689 5.28625 103.689 5.28622C103.689 5.2862 103.689 5.28617 103.689 5.28614C103.689 5.28611 103.689 5.28609 103.689 5.28606C103.689 5.28603 103.689 5.28601 103.689 5.28598C103.689 5.28595 103.689 5.28593 103.689 5.2859C103.689 5.28587 103.689 5.28585 103.689 5.28582C103.689 5.28579 103.689 5.28577 103.689 5.28574C103.689 5.28571 103.689 5.28569 103.689 5.28566C103.689 5.28563 103.689 5.28561 103.689 5.28558C103.689 5.28556 103.689 5.28553 103.689 5.2855C103.689 5.28548 103.689 5.28545 103.689 5.28543C103.689 5.2854 103.689 5.28537 103.689 5.28535C103.689 5.28532 103.689 5.2853 103.689 5.28527C103.689 5.28524 103.689 5.28522 103.689 5.28519C103.689 5.28517 103.689 5.28514 103.689 5.28512C103.689 5.28509 103.689 5.28507 103.689 5.28504C103.689 5.28502 103.689 5.28499 103.689 5.28497C103.689 5.28494 103.689 5.28492 103.689 5.28489C103.689 5.28487 103.689 5.28484 103.689 5.28482C103.689 5.28479 103.689 5.28477 103.689 5.28474C103.689 5.28472 103.689 5.28469 103.689 5.28467C103.689 5.28464 103.689 5.28462 103.689 5.28459C103.689 5.28457 103.689 5.28455 103.689 5.28452C103.689 5.2845 103.689 5.28447 103.689 5.28445C103.689 5.28442 103.689 5.2844 103.689 5.28438C103.689 5.28435 103.689 5.28433 103.689 5.2843C103.689 5.28428 103.689 5.28426 103.689 5.28423C103.689 5.28421 103.689 5.28418 103.689 5.28416C103.689 5.28414 103.689 5.28411 103.689 5.28409C103.689 5.28407 103.689 5.28404 103.689 5.28402C103.689 5.284 103.689 5.28397 103.689 5.28395C103.689 5.28393 103.689 5.2839 103.689 5.28388C103.689 5.28386 103.689 5.28383 103.689 5.28381C103.689 5.28379 103.689 5.28376 103.689 5.28374C103.689 5.28372 103.689 5.2837 103.689 5.28367C103.689 5.28365 103.689 5.28363 103.689 5.2836C103.689 5.28358 103.689 5.28356 103.689 5.28354C103.689 5.28351 103.689 5.28349 103.689 5.28347C103.689 5.28345 103.689 5.28342 103.689 5.2834C103.689 5.28338 103.689 5.28336 103.689 5.28334C103.689 5.28331 103.689 5.28329 103.689 5.28327C103.689 5.28325 103.689 5.28323 103.689 5.2832C103.689 5.28318 103.689 5.28316 103.689 5.28314C103.689 5.28312 103.689 5.28309 103.689 5.28307C103.689 5.28305 103.689 5.28303 103.689 5.28301C103.689 5.28299 103.689 5.28296 103.689 5.28294C103.689 5.28292 103.689 5.2829 103.689 5.28288C103.689 5.28286 103.689 5.28284 103.689 5.28282C103.689 5.28279 103.689 5.28277 103.689 5.28275C103.689 5.28273 103.689 5.28271 103.689 5.28269C103.689 5.28267 103.689 5.28265 103.689 5.28263C103.689 5.28261 103.689 5.28258 103.689 5.28256C103.689 5.28254 103.689 5.28252 103.689 5.2825C103.689 5.28248 103.689 5.28246 103.689 5.28244C103.689 5.28242 103.689 5.2824 103.689 5.28238C103.689 5.28236 103.689 5.28234 103.689 5.28232C103.689 5.2823 103.689 5.28228 103.689 5.28226C103.689 5.28224 103.689 5.28222 103.689 5.2822C103.689 5.28218 103.689 5.28216 103.689 5.28214C103.689 5.28212 103.689 5.2821 103.689 5.28208C103.689 5.28206 103.689 5.28204 103.689 5.28202C103.689 5.282 103.689 5.28198 103.689 5.28196C103.689 5.28194 103.689 5.28192 103.689 5.2819C103.689 5.28188 103.689 5.28186 103.689 5.28184C103.689 5.28183 103.689 5.28181 103.689 5.28179C103.689 5.28177 103.689 5.28175 103.689 5.28173C103.689 5.28171 103.689 5.28169 103.689 5.28167C103.689 5.28165 103.689 5.28163 103.689 5.28162C103.689 5.2816 103.689 5.28158 103.689 5.28156C103.689 5.28154 103.689 5.28152 103.689 5.2815C103.689 5.28148 103.689 5.28147 103.689 5.28145C103.689 5.28143 103.689 5.28141 103.689 5.28139C103.689 5.28137 103.689 5.28136 103.689 5.28134C103.689 5.28132 103.689 5.2813 103.689 5.28128C103.689 5.28126 103.689 5.28125 103.689 5.28123C103.689 5.28121 103.689 5.28119 103.689 5.28117C103.689 5.28116 103.689 5.28114 103.689 5.28112C103.689 5.2811 103.689 5.28109 103.689 5.28107C103.689 5.28105 103.689 5.28103 103.689 5.28101C103.689 5.281 103.689 5.28098 103.689 5.28096C103.689 5.28094 103.689 5.28093 103.689 5.28091C103.689 5.28089 103.689 5.28088 103.689 5.28086C103.689 5.28084 103.689 5.28082 103.689 5.28081C103.689 5.28079 103.689 5.28077 103.689 5.28076C103.689 5.28074 103.689 5.28072 103.689 5.2807C103.689 5.28069 103.689 5.28067 103.689 5.28065C103.689 5.28064 103.689 5.28062 103.689 5.2806C103.689 5.28059 103.689 5.28057 103.689 5.28055C103.689 5.28054 103.689 5.28052 103.689 5.2805C103.689 5.28049 103.689 5.28047 103.689 5.28045C103.689 5.28044 103.689 5.28042 103.689 5.28041C103.689 5.28039 103.689 5.28037 103.689 5.28036C103.689 5.28034 103.689 5.28032 103.689 5.28031C103.689 5.28029 103.689 5.28028 103.689 5.28026C103.689 5.28024 103.689 5.28023 103.689 5.28021C103.689 5.2802 103.689 5.28018 103.689 5.28016C103.689 5.28015 103.689 5.28013 103.689 5.28012C103.689 5.2801 103.689 5.28009 103.689 5.28007C103.689 5.28006 103.689 5.28004 103.689 5.28002C103.689 5.28001 103.689 5.27999 103.689 5.27998C103.689 5.27996 103.689 5.27995 103.689 5.27993C103.689 5.27992 103.689 5.2799 103.689 5.27989C103.689 5.27987 103.689 5.27986 103.689 5.27984C103.689 5.27983 103.689 5.27981 103.689 5.2798C103.689 5.27978 103.689 5.27977 103.689 5.27975C103.689 5.27974 103.689 5.27972 103.689 5.27971C103.689 5.27969 103.689 5.27968 103.689 5.27966C103.689 5.27965 103.689 5.27963 103.689 5.27962C103.689 5.27961 103.689 5.27959 103.689 5.27958C103.689 5.27956 103.689 5.27955 103.689 5.27953C103.689 5.27952 103.689 5.2795 103.689 5.27949C103.689 5.27948 103.689 5.27946 103.689 5.27945C103.689 5.27943 103.689 5.27942 103.689 5.27941C103.689 5.27939 103.689 5.27938 103.689 5.27936C103.689 5.27935 103.689 5.27934 103.689 5.27932C103.689 5.27931 103.689 5.27929 103.689 5.27928C103.689 5.27927 103.689 5.27925 103.689 5.27924C103.689 5.27923 103.689 5.27921 103.689 5.2792C103.689 5.27919 103.689 5.27917 103.689 5.27916C103.689 5.27914 103.689 5.27913 103.689 5.27912C103.689 5.2791 103.689 5.27909 103.689 5.27908C103.689 5.27907 103.689 5.27905 103.689 5.27904C103.689 5.27903 103.689 5.27901 103.689 5.279C103.689 5.27899 103.689 5.27897 103.689 5.27896C103.689 5.27895 103.689 5.27893 103.689 5.27892C103.689 5.27891 103.689 5.2789 103.689 5.27888C103.689 5.27887 103.689 5.27886 103.689 5.27884C103.689 5.27883 103.689 5.27882 103.689 5.27881C103.689 5.27879 103.689 5.27878 103.689 5.27877C103.689 5.27876 103.689 5.27874 103.689 5.27873C103.689 5.27872 103.689 5.27871 103.689 5.2787C103.689 5.27868 103.689 5.27867 103.689 5.27866C103.689 5.27865 103.689 5.27863 103.689 5.27862C103.689 5.27861 103.689 5.2786 103.689 5.27859C103.689 5.27857 103.689 5.27856 103.689 5.27855C103.689 5.27854 103.689 5.27853 103.689 5.27851C103.689 5.2785 103.689 5.27849 103.689 5.27848C103.689 5.27847 103.689 5.27845 103.689 5.27844C103.689 5.27843 103.689 5.27842 103.689 5.27841C103.689 5.2784 103.689 5.27839 103.689 5.27837C103.689 5.27836 103.689 5.27835 103.689 5.27834C103.689 5.27833 103.689 5.27832 103.689 5.27831C103.689 5.27829 103.689 5.27828 103.689 5.27827C103.689 5.27826 103.689 5.27825 103.689 5.27824C103.689 5.27823 103.689 5.27822 103.689 5.2782C103.689 5.27819 103.689 5.27818 103.689 5.27817C103.689 5.27816 103.689 5.27815 103.689 5.27814C103.689 5.27813 103.689 5.27812 103.689 5.27811C103.689 5.2781 103.689 5.27808 103.689 5.27807C103.689 5.27806 103.689 5.27805 103.689 5.27804C103.689 5.27803 103.689 5.27802 103.689 5.27801C103.689 5.278 103.689 5.27799 103.689 5.27798C103.689 5.27797 103.689 5.27796 103.689 5.27795C103.689 5.27794 103.689 5.27793 103.689 5.27792C103.689 5.27791 103.689 5.2779 103.689 5.27789C103.689 5.27788 103.689 5.27787 103.689 5.27786C103.689 5.27785 103.689 5.27784 103.689 5.27783C103.689 5.27782 103.689 5.27781 103.689 5.2778C103.689 5.27779 103.689 5.27778 103.689 5.27777C103.689 5.27776 103.689 5.27775 103.689 5.27774C103.689 5.27773 103.689 5.27772 103.689 5.27771C103.689 5.2777 103.689 5.27769 103.689 5.27768C103.689 5.27767 103.689 5.27766 103.689 5.27765C103.689 5.27764 103.689 5.27763 103.689 5.27762C103.689 5.27761 103.689 5.2776 103.689 5.27759C103.689 5.27758 103.689 5.27757 103.689 5.27757C103.689 5.27756 103.689 5.27755 103.689 5.27754C103.689 5.27753 103.689 5.27752 103.689 5.27751C103.689 5.2775 103.689 5.27749 103.689 5.27748C103.689 5.27747 103.689 5.27746 103.689 5.27746C103.689 5.27745 103.689 5.27744 103.689 5.27743C103.689 5.27742 103.689 5.27741 103.689 5.2774C103.689 5.27739 103.689 5.27738 103.689 5.27738C103.689 5.27737 103.689 5.27736 103.689 5.27735C103.689 5.27734 103.689 5.27733 103.689 5.27732C103.689 5.27732 103.689 5.27731 103.689 5.2773C103.689 5.27729 103.689 5.27728 103.689 5.27727C103.689 5.27726 103.689 5.27726 103.689 5.27725C103.689 5.27724 103.689 5.27723 103.689 5.27722C103.689 5.27722 103.689 5.27721 103.689 5.2772C103.689 5.27719 103.689 5.27718 103.689 5.27717C103.689 5.27717 103.689 5.27716 103.689 5.27715C103.689 5.27714 103.689 5.27713 103.689 5.27713C103.689 5.27712 103.689 5.27711 103.689 5.2771C103.689 5.27709 103.689 5.27709 103.689 5.27708C103.689 5.27707 103.689 5.27706 103.689 5.27706C103.689 5.27705 103.689 5.27704 103.689 5.27703C103.689 5.27702 103.689 5.27702 103.689 5.27701C103.689 5.277 103.689 5.27699 103.689 5.27699C103.689 5.27698 103.689 5.27697 103.689 5.27696C103.689 5.27696 103.689 5.27695 103.689 5.27694C103.689 5.27693 103.689 5.27693 103.689 5.27692C103.689 5.27691 103.689 5.27691 103.689 5.2769C103.689 5.27689 103.689 5.27688 103.689 5.27688C103.689 5.27687 103.689 5.27686 103.689 5.27685C103.689 5.27685 103.689 5.27684 103.689 5.27683C103.689 5.27683 103.689 5.27682 103.689 5.27681C103.689 5.27681 103.689 5.2768 103.689 5.27679C103.689 5.27678 103.689 5.27678 103.689 5.27677C103.689 5.27676 103.689 5.27676 103.689 5.27675C103.689 5.27674 103.689 5.27674 103.689 5.27673C103.689 5.27672 103.689 5.27672 103.689 5.27671C103.689 5.2767 103.689 5.2767 103.689 5.27669C103.689 5.27668 103.689 5.27668 103.689 5.27667C103.689 5.27667 103.689 5.27666 103.689 5.27665C103.689 5.27665 103.689 5.27664 103.689 5.27663C103.689 5.27663 103.689 5.27662 103.689 5.27661C103.689 5.27661 103.689 5.2766 103.689 5.2766C103.689 5.27659 103.689 5.27658 103.689 5.27658C103.689 5.27657 103.689 5.27656 103.689 5.27656C103.689 5.27655 103.689 5.27655 103.689 5.27654C103.689 5.27653 103.689 5.27653 103.689 5.27652C103.689 5.27652 103.689 5.27651 103.689 5.2765C103.689 5.2765 103.689 5.27649 103.689 5.27649C103.689 5.27648 103.689 5.27648 103.689 5.27647C103.689 5.27646 103.689 5.27646 103.689 5.27645C103.689 5.27645 103.689 5.27644 103.689 5.27644C103.689 5.27643 103.689 5.27642 103.689 5.27642C103.689 5.27641 103.689 5.27641 103.689 5.2764C103.689 5.2764 103.689 5.27639 103.689 5.27639C103.689 5.27638 103.689 5.27637 103.689 5.27637C103.689 5.27636 103.689 5.27636 103.689 5.27635C103.689 5.27635 103.689 5.27634 103.689 5.27634C103.689 5.27633 103.689 5.27633 103.689 5.27632C103.689 5.27632 103.689 5.27631 103.689 5.27631C103.689 5.2763 103.689 5.2763 103.689 5.27629C103.689 5.27629 103.689 5.27628 103.689 5.27628C103.689 5.27627 103.689 5.27627 103.689 5.27626C103.689 5.27626 103.689 5.27625 103.689 5.27625C103.689 5.27624 103.689 5.27624 103.689 5.27623C103.689 5.27623 103.689 5.27622 103.689 5.27622C103.689 5.27621 103.689 5.27621 103.689 5.2762C103.689 5.2762 103.689 5.27619 103.689 5.27619C103.689 5.27618 103.689 5.27618 103.689 5.27617C103.689 5.27617 103.689 5.27617 103.689 5.27616C103.689 5.27616 103.689 5.27615 103.689 5.27615C103.689 5.27614 103.689 5.27614 103.689 5.27613C103.689 5.27613 103.689 5.27612 103.689 5.27612C103.689 5.27612 103.689 5.27611 103.689 5.27611C103.689 5.2761 103.689 5.2761 103.689 5.27609C103.689 5.27609 103.689 5.27609 103.689 5.27608C103.689 5.27608 103.689 5.27607 103.689 5.27607C103.689 5.27606 103.689 5.27606 103.689 5.27606C103.689 5.27605 103.689 5.27605 103.689 5.27604C103.689 5.27604 103.689 5.27604 103.689 5.27603C103.689 5.27603 103.689 5.27602 103.689 5.27602C103.689 5.27602 103.689 5.27601 103.689 5.27601C103.689 5.276 103.689 5.276 103.689 5.276C103.689 5.27599 103.689 5.27599 103.689 5.27598C103.689 5.27598 103.689 5.27598 103.689 5.27597C103.689 5.27597 103.689 5.27597 103.689 5.27596C103.689 5.27596 103.689 5.27595 103.689 5.27595C103.689 5.27595 103.689 5.27594 103.689 5.27594C103.689 5.27594 103.689 5.27593 103.689 5.27593C103.689 5.27593 103.689 5.27592 103.689 5.27592C103.689 5.27592 103.689 5.27591 103.689 5.27591C103.689 5.27591 103.689 5.2759 103.689 5.2759C103.689 5.2759 103.689 5.27589 103.689 5.27589C103.689 5.27588 103.689 5.27588 103.689 5.27588C103.689 5.27587 103.689 5.27587 103.689 5.27587C103.689 5.27587 103.689 5.27586 103.689 5.27586C103.689 5.27586 103.689 5.27585 103.689 5.27585C103.689 5.27585 103.689 5.27584 103.689 5.27584C103.689 5.27584 103.689 5.27583 103.689 5.27583C103.689 5.27583 103.689 5.27582 103.689 5.27582C103.689 5.27582 103.689 5.27582 103.689 5.27581C103.689 5.27581 103.689 5.27581 103.689 5.2758C103.689 5.2758 103.689 5.2758 103.689 5.27579C103.689 5.27579 103.689 5.27579 103.689 5.27579C103.689 5.27578 103.689 5.27578 103.689 5.27578C103.689 5.27577 103.689 5.27577 103.689 5.27577C103.689 5.27577 103.689 5.27576 103.689 5.27576C103.689 5.27576 103.689 5.27576 103.689 5.27575C103.689 5.27575 103.689 5.27575 103.689 5.27574C103.689 5.27574 103.689 5.27574 103.689 5.27574C103.689 5.27573 103.689 5.27573 103.689 5.27573C103.689 5.27573 103.689 5.27572 103.689 5.27572C103.689 5.27572 103.689 5.27572 103.689 5.27571C103.689 5.27571 103.689 5.27571 103.689 5.27571C103.689 5.2757 103.689 5.2757 103.689 5.2757C103.689 5.2757 103.689 5.27569 103.689 5.27569C103.689 5.27569 103.689 5.27569 103.689 5.27569C103.689 5.27568 103.689 5.27568 103.689 5.27568C103.689 5.27568 103.689 5.27567 103.689 5.27567C103.689 5.27567 103.689 5.27567 103.689 5.27567C103.689 5.27566 103.689 5.27566 103.689 5.27566C103.689 5.27566 103.689 5.27565 103.689 5.27565C103.689 5.27565 103.689 5.27565 103.689 5.27565C103.689 5.27564 103.689 5.27564 103.689 5.27564C103.689 5.27564 103.689 5.27564 103.689 5.27563C103.689 5.27563 103.689 5.27563 103.689 5.27563C103.689 5.27563 103.689 5.27562 103.689 5.27562C103.689 5.27562 103.689 5.27562 103.689 5.27562C103.689 5.27561 103.689 5.27561 103.689 5.27561C103.689 5.27561 103.689 5.27561 103.689 5.27561C103.689 5.2756 103.689 5.2756 103.689 5.2756C103.689 5.2756 103.689 5.2756 103.689 5.27559C103.689 5.27559 103.689 5.27559 103.689 5.27559C103.689 5.27559 103.689 5.27559 103.689 5.27558C103.689 5.27558 103.689 5.27558 103.689 5.27558C103.689 5.27558 103.689 5.27558 103.689 5.27557C103.689 5.27557 103.689 5.27557 103.689 5.27557C103.689 5.27557 103.689 5.27557 103.689 5.27557C103.689 5.27556 103.689 5.27556 103.689 5.27556C103.689 5.27556 103.689 5.27556 103.689 5.27556C103.689 5.27556 103.689 5.27555 103.689 5.27555C103.689 5.27555 103.689 5.27555 103.689 5.27555C103.689 5.27555 103.689 5.27555 103.689 5.27554C103.689 5.27554 103.689 5.27554 103.689 5.27554C103.689 5.27554 103.689 5.27554 103.689 5.27554C103.689 5.27553 103.689 5.27553 103.689 5.27553C103.689 5.27553 103.689 5.27553 103.689 5.27553C103.689 5.27553 103.689 5.27553 103.689 5.27552C103.689 5.27552 103.689 5.27552 103.689 5.27552C103.689 5.27552 103.689 5.27552 103.689 5.27552C103.689 5.27552 103.689 5.27551 103.689 5.27551C103.689 5.27551 103.689 5.27551 103.689 5.27551C103.689 5.27551 103.689 5.27551 103.689 5.27551C103.689 5.27551 103.689 5.2755 103.689 5.2755C103.689 5.2755 103.689 5.2755 103.689 5.2755C103.689 5.2755 103.689 5.2755 103.689 5.2755C103.689 5.2755 103.689 5.2755 103.689 5.27549C103.689 5.27549 103.689 5.27549 103.689 5.27549C103.689 5.27549 103.689 5.27549 103.689 5.27549C103.689 5.27549 103.689 5.27549 103.689 5.27549C103.689 5.27549 103.689 5.27548 103.689 5.27548C103.689 5.27548 103.689 5.27548 103.689 5.27548C103.689 5.27548 103.689 5.27548 103.689 5.27548C103.689 5.27548 103.689 5.27548 103.689 5.27548C103.689 5.27548 103.689 5.27547 103.689 5.27547C103.689 5.27547 103.689 5.27547 103.689 5.27547C103.689 5.27547 103.689 5.27547 103.689 5.27547C103.689 5.27547 103.689 5.27547 103.689 5.27547C103.689 5.27547 103.689 5.27547 103.689 5.27546C103.689 5.27546 103.689 5.27546 103.689 5.27546C103.689 5.27546 103.689 5.27546 103.689 5.27546C103.689 5.27546 103.689 5.27546 103.689 5.27546C103.689 5.27546 103.689 5.27546 103.689 5.27546C103.689 5.27546 103.689 5.27546 103.689 5.27545C103.689 5.27545 103.689 5.27545 103.689 5.27545C103.689 5.27545 103.689 5.27545 103.689 5.27545C103.689 5.27545 103.689 5.27545 103.689 5.27545C103.689 5.27545 103.689 5.27545 103.689 5.27545C103.689 5.27545 103.689 5.27545 103.689 5.27545C103.689 5.27545 103.689 5.27545 103.689 5.27545C103.689 5.27544 103.689 5.27544 103.689 5.27544C103.689 5.27544 103.689 5.27544 103.689 5.27544C103.689 5.27544 103.689 5.27544 103.689 5.27544C103.689 5.27544 103.689 5.27544 103.689 5.27544C103.689 5.27544 103.689 5.27544 103.689 5.27544C103.689 5.27544 103.689 5.27544 103.689 5.27544C103.689 5.27544 103.689 5.27544 103.689 5.27544C103.689 5.27544 103.689 5.27544 103.689 5.27544C103.689 5.27544 103.689 5.27543 103.689 5.27543C103.689 5.27543 103.689 5.27543 103.689 5.27543C103.689 5.27543 103.689 5.27543 103.689 5.27543C103.689 5.27543 103.689 5.27543 103.689 5.27543C103.689 5.27543 103.689 5.27543 103.689 5.27543V5.27543C103.689 5.27543 103.689 5.27543 103.689 5.27543V5.27543C103.689 5.27543 103.689 5.27543 103.689 5.27543V5.27543V5.27543C103.689 5.27543 103.689 5.27543 103.689 5.27543C103.689 5.27543 103.689 5.27543 103.689 5.27543C103.689 5.27543 103.689 5.27543 103.689 5.27543C103.689 5.27542 103.689 5.27542 103.689 5.27542C103.689 5.27542 103.689 5.27542 103.689 5.27542V5.27542C103.689 5.27542 103.689 5.27542 103.689 5.27542C103.689 5.27542 103.689 5.27542 103.689 5.27542C103.689 5.27542 103.689 5.27542 103.689 5.27542C103.689 5.27542 103.689 5.27542 103.689 5.27542C103.689 5.27542 103.689 5.27542 103.689 5.27542C103.689 5.27542 103.689 5.27542 103.689 5.27542H103.189ZM102.689 5.29877C102.689 6.32696 101.819 7.20357 100.761 7.20357V8.20357C102.365 8.20357 103.689 6.8855 103.689 5.29877H102.689ZM100.761 7.20357H89.7643V8.20357H100.761V7.20357ZM89.7643 7.20357H87.8498V8.20357H89.7643V7.20357ZM124.188 14.918V15.418H124.688V14.918H124.188ZM124.188 13.0035H124.688V12.5035H124.188V13.0035ZM110.786 13.0035H110.286V13.5035H110.786V13.0035ZM110.786 0.909425H111.286V0.409425H110.786V0.909425ZM108.872 0.909425V0.409425H108.372V0.909425H108.872ZM108.872 14.918H108.372V15.418H108.872V14.918ZM124.688 14.918V13.0035H123.688V14.918H124.688ZM124.188 12.5035H110.786V13.5035H124.188V12.5035ZM111.286 13.0035V0.909425H110.286V13.0035H111.286ZM110.786 0.409425H108.872V1.40942H110.786V0.409425ZM108.372 0.909425V14.918H109.372V0.909425H108.372ZM108.872 15.418H124.188V14.418H108.872V15.418ZM127.933 13.0035V12.5035H127.433V13.0035H127.933ZM127.933 14.918H127.433V15.418H127.933V14.918ZM143.996 14.918V15.418H144.496V14.918H143.996ZM143.996 13.0035H144.496V12.5035H143.996V13.0035ZM127.933 6.95645V6.45645H127.433V6.95645H127.933ZM127.933 8.89429H127.433V9.39429H127.933V8.89429ZM141.755 8.89429V9.39429H142.255V8.89429H141.755ZM141.755 6.95645H142.255V6.45645H141.755V6.95645ZM127.933 0.909425V0.409425H127.433V0.909425H127.933ZM127.933 2.84727H127.433V3.34727H127.933V2.84727ZM143.996 2.84727V3.34727H144.496V2.84727H143.996ZM143.996 0.909425H144.496V0.409425H143.996V0.909425ZM127.433 13.0035V14.918H128.433V13.0035H127.433ZM127.933 15.418H143.996V14.418H127.933V15.418ZM144.496 14.918V13.0035H143.496V14.918H144.496ZM143.996 12.5035H127.933V13.5035H143.996V12.5035ZM127.433 6.95645V8.89429H128.433V6.95645H127.433ZM127.933 9.39429H141.755V8.39429H127.933V9.39429ZM142.255 8.89429V6.95645H141.255V8.89429H142.255ZM141.755 6.45645H127.933V7.45645H141.755V6.45645ZM127.433 0.909425V2.84727H128.433V0.909425H127.433ZM127.933 3.34727H143.996V2.34727H127.933V3.34727ZM144.496 2.84727V0.909425H143.496V2.84727H144.496ZM143.996 0.409425H127.933V1.40942H143.996V0.409425ZM147.724 14.918L147.368 14.5668L146.528 15.418H147.724V14.918ZM150.409 14.918V15.418H150.617L150.764 15.27L150.409 14.918ZM155.989 9.2912L156.344 8.93913L155.989 8.58113L155.634 8.93913L155.989 9.2912ZM161.569 14.918L161.214 15.27L161.36 15.418H161.569V14.918ZM164.277 14.918V15.418H165.476L164.632 14.5662L164.277 14.918ZM157.343 7.9137L156.987 7.56192L156.639 7.9137L156.987 8.26547L157.343 7.9137ZM164.277 0.909425L164.632 1.2612L165.476 0.409425H164.277V0.909425ZM161.569 0.909425V0.409425H161.36L161.213 0.558083L161.569 0.909425ZM155.989 6.55954L155.633 6.91088L155.989 7.2711L156.344 6.91088L155.989 6.55954ZM150.409 0.909425L150.764 0.558083L150.617 0.409425H150.409V0.909425ZM147.724 0.909425V0.409425H146.528L147.368 1.2606L147.724 0.909425ZM154.634 7.9137L154.99 8.26487L155.337 7.9137L154.99 7.56252L154.634 7.9137ZM147.724 15.418H150.409V14.418H147.724V15.418ZM150.764 15.27L156.344 9.64328L155.634 8.93913L150.053 14.5659L150.764 15.27ZM155.634 9.64328L161.214 15.27L161.924 14.5659L156.344 8.93913L155.634 9.64328ZM161.569 15.418H164.277V14.418H161.569V15.418ZM164.632 14.5662L157.698 7.56192L156.987 8.26547L163.922 15.2697L164.632 14.5662ZM157.698 8.26547L164.632 1.2612L163.922 0.557653L156.987 7.56192L157.698 8.26547ZM164.277 0.409425H161.569V1.40942H164.277V0.409425ZM161.213 0.558083L155.633 6.2082L156.344 6.91088L161.924 1.26077L161.213 0.558083ZM156.344 6.2082L150.764 0.558083L150.053 1.26077L155.633 6.91088L156.344 6.2082ZM150.409 0.409425H147.724V1.40942H150.409V0.409425ZM147.368 1.2606L154.279 8.26487L154.99 7.56252L148.079 0.558252L147.368 1.2606ZM154.279 7.56252L147.368 14.5668L148.079 15.2691L154.99 8.26487L154.279 7.56252Z" fill="white" />
</svg>
	